<svg width="17" height="23" viewBox="0 0 17 23" fill="none" xmlns="http://www.w3.org/2000/svg">
<path d="M16.1073 9.52147C16.1073 9.72451 16.1073 9.94447 16.1073 10.1475C16.1073 10.3167 16.0734 10.469 16.0396 10.6213C16.0227 10.7228 15.9888 10.8074 15.955 10.9089C15.9211 10.9766 15.9042 11.0443 15.8704 11.112C15.7351 11.3658 15.5829 11.6196 15.4137 11.8565C15.1938 12.161 14.9401 12.4487 14.6863 12.7194C14.4495 12.9901 14.2128 13.2778 13.9759 13.5485C13.5869 13.9715 13.2148 14.3945 12.8257 14.8175C12.4198 15.2575 12.0138 15.6805 11.6079 16.1373C11.2019 16.5942 10.8298 17.051 10.5422 17.5924C10.3223 18.0154 10.1701 18.4723 10.0178 18.9291C10.0009 18.9799 9.98401 19.0306 9.9671 19.0645C9.93327 19.1322 9.89944 19.183 9.86561 19.2506C9.79795 19.3352 9.73025 19.4368 9.66259 19.5214C9.54418 19.6567 9.40891 19.7752 9.29051 19.8936C8.98604 20.1474 8.68154 20.3843 8.36015 20.6042C8.10643 20.7734 7.83577 20.9426 7.54821 21.078C6.95619 21.3657 6.34727 21.6364 5.72141 21.8563C5.11247 22.0594 4.48664 22.2624 3.89461 22.5162C3.79312 22.567 3.6916 22.6008 3.59011 22.6516C3.53936 22.3809 3.47171 22.1101 3.38713 21.8225C3.28564 21.4503 3.15034 21.078 2.98119 20.7058C2.84587 20.4181 2.71055 20.1136 2.60906 19.809C2.5414 19.6229 2.49064 19.4367 2.4399 19.2337C2.42298 19.1322 2.40607 19.0306 2.38915 18.946C2.38915 18.6922 2.38914 18.4215 2.42297 18.1677C2.4568 17.5755 2.49062 17.0002 2.47371 16.408C2.47371 15.4097 2.47373 14.4283 2.33841 13.4469C2.28767 13.0239 2.27074 12.584 2.21999 12.1441C2.16925 11.738 2.11853 11.3319 2.03395 10.9258C2.03395 10.892 2.03394 10.8582 2.01702 10.8243C1.98319 10.689 1.9663 10.5536 1.93247 10.4182C1.79715 9.82603 1.628 9.25071 1.40811 8.69234C1.20513 8.16781 1.00214 7.64328 0.81607 7.10183C0.57926 6.39118 0.376259 5.68053 0.0548743 4.98679C0.0548743 4.93603 0.0548743 4.90222 0.0548743 4.85145C0.0548743 4.78377 0.0549094 4.69916 0.0379944 4.63148C0.207144 4.46228 0.376274 4.29306 0.545424 4.14078C0.680744 4.02234 0.816048 3.92086 0.951368 3.81934C1.05286 3.75166 1.15439 3.70087 1.25588 3.63319C1.5096 3.93776 1.76328 4.2423 2.05083 4.51303C2.28764 4.71607 2.52447 4.86835 2.81203 4.98679C3.08267 5.08832 3.37022 5.15602 3.65778 5.17294C4.24981 5.20678 4.808 5.15603 5.34928 4.96991C5.73833 4.83455 6.09357 4.64839 6.43187 4.41151C6.70251 4.22539 6.97313 4.00541 7.20994 3.76853C7.36218 3.59933 7.5144 3.43016 7.61589 3.22712C7.75121 2.9564 7.8696 2.68566 7.97109 2.39802C8.10641 2.00885 8.19102 1.61967 8.32634 1.24742C8.37708 1.2305 8.41089 1.19667 8.46164 1.17975C8.56313 1.12899 8.66464 1.09514 8.74921 1.0613C8.83379 1.02746 8.90142 1.01055 8.986 0.99363C9.1044 0.97671 9.22284 0.959791 9.34125 0.942871C9.392 0.942871 9.4258 0.942871 9.47655 0.942871C9.62878 1.02747 9.78102 1.11207 9.95017 1.17975C10.1362 1.24744 10.3223 1.29819 10.5253 1.33203C10.6775 1.36587 10.8128 1.41664 10.9651 1.45048C11.1511 1.50125 11.3203 1.53507 11.5064 1.56891C11.6924 1.60275 11.8785 1.65353 12.0645 1.68737C12.1829 1.70429 12.3183 1.7212 12.4367 1.75504C12.4874 1.75504 12.5382 1.77197 12.5889 1.78889C12.5889 1.78889 12.6227 1.78889 12.6396 1.78889C12.572 1.95809 12.5212 2.12729 12.4705 2.31341C12.3521 2.75334 12.2675 3.19328 12.1998 3.65013C12.1153 4.2085 12.0984 4.80069 12.3183 5.32522C12.4874 5.69747 12.6735 6.03587 12.9441 6.32351C13.1978 6.59424 13.5023 6.79729 13.8406 6.96649C14.2804 7.18645 14.7709 7.25414 15.2276 7.3895C15.2615 7.3895 15.2953 7.42334 15.3291 7.44026C15.363 7.44026 15.3799 7.4741 15.3968 7.49102L15.4306 7.52484L15.4645 7.55871C15.4814 7.59255 15.4983 7.60945 15.5321 7.64329C15.5659 7.71097 15.6167 7.77868 15.6505 7.82944C15.7013 7.9648 15.7689 8.08321 15.8027 8.21858C15.8704 8.42162 15.9211 8.60775 15.955 8.8108C16.0057 9.04768 16.0227 9.28455 16.0396 9.53836L16.1073 9.52147Z" fill="#1E3D4C"/>
</svg>
