<svg width="184" height="204" viewBox="0 0 184 204" fill="none" xmlns="http://www.w3.org/2000/svg">
<path d="M183.167 33.3851C183.201 33.4866 183.234 33.605 183.251 33.7065C183.184 33.825 183.116 33.9265 183.032 34.0449C182.49 34.8402 181.864 35.5509 181.255 36.2953C180.647 37.0568 180.105 37.8859 179.564 38.715C179.259 39.1549 178.904 39.5779 178.6 40.0178C178.278 40.4747 178.025 40.9823 177.703 41.4391C177.669 41.4899 177.636 41.5237 177.602 41.5745C177.551 41.6421 177.483 41.6929 177.416 41.7437C177.314 41.8283 177.196 41.9129 177.094 41.9975C176.908 42.1159 176.688 42.2175 176.502 42.3359C176.232 42.4882 175.961 42.6743 175.69 42.8435C175.437 43.0127 175.166 43.165 174.912 43.3342C174.676 43.4865 174.456 43.6557 174.219 43.808C173.931 43.9941 173.627 44.1802 173.339 44.3832C172.899 44.7047 172.51 45.0601 172.155 45.4661C171.783 45.8891 171.462 46.3629 171.174 46.8536C170.937 47.2766 170.751 47.7335 170.565 48.2072C170.362 48.7487 170.142 49.2732 169.939 49.8147C169.753 50.3223 169.55 50.813 169.364 51.3206C169.161 51.9297 168.975 52.5219 168.908 53.1649C168.857 53.6725 168.84 54.197 168.806 54.7046C168.772 55.1446 168.755 55.5675 168.738 56.0075C168.738 56.3797 168.721 56.752 168.704 57.1073C168.671 57.5303 168.637 57.9702 168.603 58.3932C168.603 58.3425 168.603 58.3086 168.603 58.2579C168.535 59.2562 168.366 60.2376 168.18 61.2189C167.977 62.0988 167.656 62.9617 167.504 63.8585C167.368 64.6707 167.334 65.4998 167.351 66.3289C167.351 66.9888 167.385 67.6486 167.385 68.3085C167.385 68.8669 167.385 69.4422 167.368 70.0006C167.334 70.4066 167.284 70.7958 167.216 71.185C167.165 71.4388 167.081 71.7095 167.013 71.9633C166.996 72.0141 166.962 72.0649 166.945 72.1325C166.827 72.3356 166.692 72.5386 166.556 72.7417C166.387 72.9786 166.201 73.1816 166.032 73.4016C165.727 73.8076 165.44 74.2137 165.119 74.6029C164.51 75.2797 163.833 75.9057 163.41 76.7179C163.173 77.1748 162.987 77.6655 162.835 78.1562C162.666 78.6638 162.547 79.1883 162.378 79.679C162.243 80.0343 162.091 80.3727 161.938 80.7111C161.803 80.9818 161.634 81.2526 161.465 81.5064C161.279 81.7602 161.11 82.0309 160.957 82.3016C160.788 82.6231 160.619 82.9446 160.467 83.283C160.179 83.9091 160.027 84.6028 159.909 85.2796C159.875 85.5503 159.841 85.8041 159.875 86.0748C159.909 86.3625 159.993 86.6332 160.112 86.9039C160.298 87.327 160.535 87.7499 160.771 88.156C160.822 88.3083 160.907 88.4606 161.008 88.596C161.059 88.6806 161.093 88.7652 161.143 88.8498C161.279 89.1374 161.397 89.425 161.516 89.7296C161.702 90.288 161.871 90.8464 162.074 91.3878C162.243 91.8785 162.446 92.3692 162.632 92.8599C162.75 93.2152 162.852 93.5705 162.936 93.9428C162.97 94.0951 162.987 94.2473 163.038 94.3827C163.038 94.4673 163.072 94.5519 163.089 94.6534C163.139 95.0257 163.19 95.3979 163.224 95.7702C163.275 96.3624 163.342 96.9546 163.393 97.5637C163.427 98.2913 163.427 99.0189 163.427 99.7464C163.427 100.237 163.393 100.745 163.359 101.235C163.359 101.472 163.326 101.726 163.326 101.963C163.326 102.555 163.495 103.131 163.698 103.672C163.867 104.146 164.104 104.586 164.273 105.042C164.374 105.381 164.476 105.702 164.543 106.041C164.611 106.362 164.645 106.684 164.679 107.022C164.713 107.817 164.713 108.596 164.713 109.391V110.525C164.713 111.066 164.679 111.608 164.713 112.149C164.729 112.572 164.797 112.995 164.899 113.418C164.983 113.79 165.102 114.146 165.203 114.518C165.457 115.398 165.711 116.278 165.897 117.174C165.981 117.631 166.083 118.088 166.184 118.528C166.269 118.951 166.32 119.357 166.353 119.797C166.37 120.152 166.387 120.491 166.37 120.846C166.336 121.218 166.286 121.607 166.201 121.98C166.15 122.166 166.117 122.369 166.1 122.572C166.066 122.876 166.049 123.181 166.032 123.486C166.015 123.959 165.998 124.433 166.066 124.907C166.117 125.313 166.201 125.719 166.269 126.125C166.353 126.599 166.472 127.073 166.624 127.546C166.895 128.443 167.114 129.374 167.588 130.203C168.062 131.015 168.654 131.76 169.263 132.47C169.703 132.978 170.092 133.519 170.481 134.061C170.836 134.535 171.225 134.974 171.614 135.431C172.037 135.939 172.426 136.463 172.832 136.988C173.052 137.259 173.272 137.529 173.491 137.8C173.711 138.088 173.931 138.392 174.134 138.68C174.134 138.68 174.134 138.68 174.134 138.697C174.54 139.306 174.929 139.932 175.284 140.558C175.589 141.1 175.876 141.658 176.164 142.216C176.35 142.589 176.502 142.978 176.638 143.384C176.824 143.925 176.959 144.467 177.111 145.025H177.077C176.485 145.093 175.91 145.262 175.335 145.397C175.065 145.448 174.777 145.465 174.489 145.516C174.202 145.567 173.897 145.6 173.61 145.651C173.018 145.753 172.443 145.905 171.851 146.04C171.563 146.108 171.276 146.193 170.988 146.26C170.667 146.345 170.345 146.413 170.024 146.497C169.483 146.633 168.958 146.751 168.434 146.92C167.825 147.106 167.233 147.343 166.641 147.546C166.015 147.749 165.372 147.902 164.73 148.105C164.121 148.291 163.529 148.494 162.92 148.629C162.108 148.781 161.262 148.832 160.484 149.137C160.129 149.272 159.807 149.492 159.57 149.797C159.401 150 159.266 150.237 159.148 150.473C158.911 150.947 158.758 151.455 158.674 151.962C158.589 152.47 158.522 152.995 158.454 153.502C158.386 154.077 158.353 154.653 158.268 155.228C158.234 155.38 158.183 155.55 158.133 155.702C158.082 155.837 158.014 155.99 157.947 156.125C157.913 156.176 157.879 156.243 157.845 156.294C157.777 156.396 157.693 156.48 157.625 156.565C157.591 156.599 157.558 156.632 157.507 156.683C157.405 156.768 157.287 156.852 157.185 156.937C156.492 157.377 155.731 157.783 155.291 158.477C154.919 159.052 154.716 159.78 154.783 160.473C154.902 161.472 155.494 162.318 156.052 163.13C156.086 163.181 156.103 163.214 156.137 163.265C156.34 163.536 156.543 163.807 156.729 164.094C156.881 164.331 157.016 164.568 157.152 164.822C157.304 165.093 157.439 165.346 157.591 165.617C157.794 166.057 157.98 166.497 158.15 166.954C158.251 167.292 158.353 167.631 158.42 167.969C158.488 168.358 158.556 168.747 158.589 169.137C158.589 169.39 158.589 169.644 158.589 169.915C158.556 170.253 158.522 170.592 158.454 170.93C158.217 171.878 157.879 172.791 157.625 173.739C157.405 174.585 157.236 175.448 157.067 176.311C156.949 176.869 156.813 177.428 156.627 177.969C156.526 178.223 156.424 178.477 156.306 178.73C156.018 179.272 155.663 179.779 155.426 180.355C155.291 180.693 155.172 181.032 155.122 181.387C155.088 181.658 155.054 181.945 155.054 182.233C155.054 182.842 155.054 183.451 155.122 184.06C155.156 184.483 155.24 184.906 155.291 185.329C155.359 185.854 155.46 186.361 155.646 186.869C155.849 187.427 156.171 187.918 156.526 188.392C156.881 188.883 157.253 189.39 157.693 189.813C157.879 189.982 158.065 190.168 158.285 190.304C158.42 190.388 158.556 190.49 158.691 190.575C159.215 190.947 159.689 191.404 160.213 191.793C160.518 192.013 160.839 192.199 161.16 192.385C161.752 192.69 162.378 192.977 163.004 193.197C163.326 193.316 163.664 193.383 163.985 193.451C164.188 193.485 164.391 193.519 164.594 193.536C164.814 193.553 165.034 193.586 165.254 193.569C165.829 193.536 166.37 193.333 166.776 192.927C167.081 192.639 167.301 192.284 167.554 191.945C167.656 191.844 167.74 191.742 167.842 191.657L167.876 191.624C167.876 191.624 167.876 191.725 167.893 191.759C168.011 192.639 168.079 193.536 168.163 194.415C168.265 195.38 168.332 196.344 168.417 197.309C168.502 198.29 168.603 199.272 168.671 200.27C168.705 200.947 168.755 201.624 168.755 202.3C168.755 202.656 168.755 203.011 168.755 203.383C168.704 203.417 168.654 203.434 168.62 203.468C168.535 203.519 168.451 203.586 168.366 203.654C168.332 203.671 168.282 203.705 168.248 203.722C168.112 203.772 167.977 203.823 167.842 203.874C167.757 203.891 167.69 203.925 167.605 203.942C167.588 203.942 167.554 203.942 167.537 203.942C167.368 203.942 167.199 203.942 167.03 203.942C166.945 203.942 166.844 203.942 166.759 203.908C166.759 203.908 166.742 203.908 166.725 203.908V203.874C166.624 203.4 166.522 202.893 166.167 202.537C165.795 202.148 165.288 201.86 164.73 201.86C164.713 201.86 164.696 201.86 164.662 201.86C164.391 201.86 164.104 201.894 163.833 201.962C163.529 202.047 163.258 202.182 163.021 202.368C162.734 202.588 162.463 202.842 162.192 203.079C162.125 203.146 162.04 203.197 161.972 203.248C161.939 203.265 161.922 203.282 161.888 203.299H161.854C161.668 203.197 161.499 203.096 161.33 202.977C161.279 202.926 161.211 202.893 161.16 202.842C161.042 202.74 160.94 202.622 160.822 202.503C160.687 202.351 160.568 202.199 160.45 202.03C160.416 201.979 160.382 201.911 160.348 201.86C160.281 201.725 160.23 201.573 160.179 201.437C160.044 201.048 159.909 200.642 159.807 200.236C159.74 199.864 159.672 199.508 159.57 199.153C159.486 198.849 159.384 198.544 159.283 198.223C159.131 197.783 158.978 197.36 158.742 196.97C158.572 196.683 158.386 196.429 158.183 196.158C157.963 195.871 157.744 195.583 157.473 195.346C157.27 195.16 157.067 194.974 156.864 194.771C156.813 194.703 156.746 194.635 156.695 194.568C156.543 194.331 156.424 194.094 156.238 193.874C156.069 193.688 155.9 193.502 155.714 193.316C155.545 193.13 155.392 192.943 155.206 192.774C155.003 192.571 154.8 192.385 154.597 192.182C154.411 191.996 154.242 191.81 154.056 191.641C153.819 191.421 153.566 191.234 153.312 191.048C153.143 190.93 152.99 190.811 152.804 190.727C152.585 190.608 152.348 190.524 152.111 190.456C151.773 190.355 151.434 190.253 151.079 190.219C150.91 190.219 150.741 190.202 150.572 190.185C150.335 190.169 150.081 190.135 149.844 190.084C149.303 189.965 148.779 189.847 148.254 189.661C148.068 189.593 147.899 189.526 147.713 189.441C147.611 189.39 147.527 189.339 147.425 189.272C147.375 189.238 147.324 189.204 147.273 189.153C147.138 189.035 147.019 188.899 146.901 188.764C146.8 188.646 146.698 188.527 146.614 188.392C146.529 188.273 146.461 188.155 146.394 188.02C146.377 187.969 146.36 187.918 146.326 187.867C146.326 187.817 146.292 187.749 146.275 187.698C146.224 187.377 146.174 187.055 146.089 186.751C145.988 186.395 145.852 186.057 145.632 185.752C145.463 185.515 145.26 185.295 145.057 185.075C144.719 184.72 144.364 184.382 143.941 184.162C143.061 183.705 142.013 183.586 141.116 184.026C140.795 184.196 140.456 184.399 140.203 184.669C139.831 185.059 139.543 185.515 139.205 185.938C139.137 186.006 139.069 186.074 139.002 186.141C138.934 186.192 138.866 186.243 138.799 186.294C138.579 186.429 138.376 186.548 138.156 186.649C138.055 186.7 137.953 186.734 137.852 186.784C137.818 186.784 137.767 186.801 137.733 186.818C137.665 186.818 137.598 186.835 137.53 186.835C137.378 186.835 137.226 186.835 137.073 186.835C136.82 186.818 136.566 186.784 136.295 186.734C135.923 186.649 135.585 186.531 135.23 186.412C135.094 186.361 134.959 186.311 134.841 186.26C134.756 186.209 134.672 186.158 134.604 186.108C134.249 185.854 133.91 185.6 133.504 185.431C133.098 185.262 132.676 185.177 132.253 185.109C131.897 185.059 131.542 185.008 131.17 184.991C130.73 184.974 130.291 184.991 129.851 184.974C129.749 184.974 129.665 184.957 129.563 184.94C129.496 184.923 129.411 184.906 129.343 184.872C129.039 184.754 128.751 184.636 128.464 184.5C128.396 184.466 128.311 184.416 128.244 184.382C128.21 184.365 128.193 184.331 128.159 184.314C128.108 184.263 128.058 184.213 127.99 184.145C127.922 184.06 127.855 183.976 127.804 183.891C127.703 183.739 127.618 183.586 127.533 183.434C127.449 183.248 127.364 183.062 127.297 182.859C127.263 182.774 127.246 182.69 127.229 182.622C127.178 182.284 127.178 181.928 127.11 181.59C127.043 181.251 126.924 180.913 126.772 180.609C126.535 180.152 126.231 179.712 125.774 179.424C125.368 179.17 124.878 179.035 124.421 178.95C123.947 178.866 123.491 178.9 123.017 179.001C122.696 179.069 122.357 179.17 122.053 179.306C121.698 179.458 121.393 179.678 121.055 179.864C120.666 180.067 120.294 180.287 119.905 180.49C119.786 180.541 119.668 180.609 119.533 180.642C119.431 180.676 119.313 180.71 119.211 180.727C119.093 180.727 118.991 180.761 118.89 180.778C118.839 180.778 118.771 180.778 118.721 180.778C118.67 180.778 118.619 180.778 118.552 180.761C118.552 180.761 118.518 180.761 118.501 180.761C118.501 180.761 118.484 180.727 118.467 180.727C118.45 180.693 118.433 180.659 118.416 180.625C118.382 180.558 118.349 180.473 118.332 180.405C118.146 179.796 118.061 179.153 117.875 178.544C117.723 178.037 117.452 177.58 117.046 177.241C116.403 176.666 115.659 176.26 114.796 176.108C114.323 176.04 113.815 176.023 113.359 176.108C112.97 176.175 112.614 176.294 112.242 176.446C112.005 176.548 111.769 176.632 111.532 176.717C111.193 176.869 110.855 177.005 110.517 177.123C109.993 177.309 109.468 177.529 108.944 177.715C108.707 177.8 108.453 177.867 108.2 177.918C108.013 177.952 107.827 177.986 107.641 178.003C107.523 178.003 107.405 178.003 107.303 178.003C106.779 177.952 106.271 177.834 105.747 177.749C105.222 177.664 104.698 177.563 104.174 177.461C104.174 177.461 104.14 177.461 104.123 177.461C104.123 177.461 104.106 177.461 104.089 177.461C103.582 177.36 103.074 177.224 102.55 177.174C102.042 177.123 101.518 177.174 101.028 177.292C100.571 177.394 100.148 177.614 99.742 177.851C99.353 178.07 99.0147 178.341 98.6933 178.629C98.7271 178.595 98.761 178.578 98.7948 178.544C98.6595 178.663 98.5241 178.781 98.3719 178.883C98.3719 178.883 98.3381 178.9 98.3212 178.917C98.2704 178.917 98.2197 178.916 98.1689 178.933C97.8814 178.933 97.5938 178.933 97.3063 178.917C97.2217 178.917 97.1371 178.916 97.0356 178.883C97.0356 178.883 97.0018 178.883 96.9849 178.883C96.9849 178.883 96.968 178.866 96.9511 178.849C96.9511 178.849 96.9172 178.832 96.9172 178.815C96.8496 178.578 96.7819 178.324 96.7311 178.087C96.7142 177.986 96.6973 177.901 96.6973 177.8C96.6804 177.461 96.6635 177.106 96.6804 176.768C96.6804 176.768 96.6804 176.751 96.6804 176.734C96.6804 176.7 96.6804 176.683 96.6973 176.649C96.8157 176.345 96.951 176.057 97.0694 175.769C97.2386 175.38 97.4247 175.008 97.5262 174.602C97.5938 174.263 97.6446 173.925 97.6615 173.57C97.6784 173.231 97.6615 172.893 97.6615 172.554C97.6615 171.979 97.6615 171.387 97.5938 170.829C97.4585 169.796 97.1202 168.815 96.6973 167.868C96.359 167.123 95.97 166.395 95.5809 165.685C95.3779 165.313 95.158 164.94 94.9212 164.585C94.7859 164.382 94.6337 164.179 94.4984 163.976C94.2954 163.671 94.1093 163.367 93.9402 163.062C93.9064 163.011 93.8894 162.944 93.8725 162.893C93.8725 162.842 93.8387 162.791 93.8387 162.741C93.8387 162.622 93.8049 162.521 93.8049 162.402C93.771 161.945 93.771 161.489 93.7879 161.032C93.8387 160.49 93.9232 159.966 94.0247 159.441C94.1431 158.866 94.3123 158.308 94.4476 157.749C94.6168 157.123 94.7521 156.497 94.8536 155.871C94.9551 155.245 95.0227 154.602 95.0227 153.959C95.0227 153.333 95.0058 152.707 94.9043 152.081C94.7352 150.998 94.3631 149.949 93.9909 148.917C93.8049 148.375 93.6188 147.851 93.3989 147.326C93.2297 146.937 93.0606 146.531 92.9084 146.142C92.8745 146.057 92.8576 145.956 92.8238 145.871C92.8238 145.82 92.8238 145.77 92.8069 145.719C92.8069 145.668 92.8069 145.617 92.8069 145.55C92.8069 145.499 92.8069 145.465 92.8069 145.414C92.8069 145.38 92.8069 145.364 92.8238 145.33C92.8914 145.161 92.9929 144.991 93.0606 144.822C93.1621 144.619 93.2467 144.399 93.3312 144.179C93.4666 143.824 93.568 143.469 93.6019 143.079C93.6188 142.758 93.6188 142.436 93.6188 142.115C93.6188 141.489 93.6188 140.863 93.6188 140.237C93.6188 139.831 93.6188 139.425 93.6019 139.018C93.6019 138.765 93.568 138.494 93.5511 138.24C93.5173 137.597 93.6188 136.853 93.1959 136.311C92.9422 135.99 92.587 135.854 92.181 135.821C91.8596 135.787 91.5382 135.804 91.2169 135.787C90.8955 135.787 90.5572 135.753 90.2358 135.736C89.8975 135.736 89.5761 135.736 89.2378 135.736C88.4089 135.736 87.5801 135.736 86.7682 135.736C86.3622 135.736 85.9563 135.702 85.5334 135.668C85.1105 135.634 84.6877 135.634 84.2479 135.601C83.7573 135.567 83.2668 135.533 82.7932 135.465C82.5056 135.431 82.2181 135.381 81.9305 135.33C81.9305 135.245 81.9305 135.144 81.9305 135.059C81.9305 134.771 81.9305 134.484 81.9305 134.196C81.9305 133.604 81.9305 133.012 81.8798 132.436C81.8459 131.98 81.6768 131.506 81.237 131.286C80.9664 131.134 80.6788 131.134 80.3743 131.134C80.1037 131.134 79.8331 131.167 79.5793 131.167C79.2749 131.167 78.9704 131.184 78.6659 131.218C78.4291 131.252 78.1923 131.303 77.9555 131.354C77.7018 131.404 77.448 131.421 77.2112 131.523C77.0082 131.607 76.8222 131.726 76.653 131.844C76.4501 131.997 76.2809 132.166 76.1456 132.386C76.061 132.504 76.0102 132.639 75.9426 132.775C75.8242 132.775 75.7058 132.792 75.5874 132.809C75.3844 132.843 75.1983 132.893 75.0123 132.927C74.8431 132.961 74.674 132.978 74.5048 132.995C74.2173 132.995 73.9297 132.995 73.6591 132.961C73.3884 132.961 73.1009 132.944 72.8302 132.927C72.6611 132.927 72.5089 132.876 72.3397 132.859C72.1367 132.843 71.9337 132.843 71.7138 132.843C71.274 132.843 70.8174 132.859 70.4114 133.063C70.1238 133.198 69.8701 133.384 69.7179 133.672C69.5826 133.908 69.5318 134.162 69.5149 134.433C69.5149 134.974 69.5656 135.533 69.5995 136.074C69.6502 136.886 69.6671 137.699 69.6164 138.511C69.6164 138.545 69.6164 138.562 69.6164 138.595C69.6164 138.697 69.5995 138.782 69.5826 138.883C69.5826 138.883 69.5826 138.9 69.5826 138.917C69.5826 138.917 69.5826 138.934 69.5826 138.951C69.498 139.12 69.3796 139.272 69.2781 139.425C69.0075 139.814 68.6353 140.169 68.5846 140.66C68.5338 141.083 68.5846 141.506 68.6353 141.929C68.6353 142.25 68.6353 142.589 68.6184 142.91C68.6184 143.012 68.6015 143.096 68.5846 143.198C68.5846 143.232 68.5846 143.249 68.5677 143.282C68.5508 143.333 68.5338 143.367 68.5169 143.418C68.4662 143.519 68.3985 143.621 68.3308 143.722C68.2632 143.824 68.1955 143.925 68.111 144.01C68.094 144.027 68.0602 144.061 68.0433 144.078C68.0433 144.078 68.0095 144.095 68.0095 144.111C67.9756 144.128 67.9418 144.145 67.908 144.162C67.7726 144.23 67.6373 144.281 67.4851 144.331C67.3159 144.382 67.1637 144.433 66.9946 144.467C66.8085 144.501 66.6224 144.534 66.4195 144.551C65.7936 144.585 65.1677 144.551 64.5419 144.518C64.3051 144.501 64.0513 144.467 63.8145 144.433C63.6623 144.399 63.527 144.365 63.3917 144.314C62.8842 144.128 62.3937 143.908 61.8693 143.79C61.4634 143.705 61.0236 143.672 60.6007 143.655C60.2116 143.655 59.8226 143.655 59.4335 143.672C59.1967 143.672 58.9599 143.688 58.74 143.722C58.4863 143.756 58.2495 143.807 58.0127 143.891C57.7251 143.976 57.4545 144.111 57.2008 144.247C56.9978 144.348 56.7948 144.467 56.5918 144.585C56.3889 144.721 56.1859 144.856 55.9829 144.974C55.9491 144.974 55.9321 144.991 55.8983 145.008C55.8476 145.008 55.7968 145.042 55.763 145.042C55.6784 145.042 55.5769 145.076 55.4754 145.076C55.0018 145.093 54.5113 145.076 54.0377 145.025C53.6317 144.991 53.2088 144.924 52.8029 144.839C52.769 144.805 52.7521 144.788 52.7183 144.754C52.566 144.518 52.4646 144.264 52.3292 144.027C52.1939 143.79 52.0755 143.553 51.9402 143.299C51.7541 142.927 51.5342 142.555 51.2805 142.233C51.0945 142.013 50.8746 141.81 50.6885 141.59C50.5193 141.404 50.3671 141.201 50.2149 140.998C49.9611 140.677 49.6905 140.355 49.4537 140.034C49.2 139.712 48.9801 139.357 48.7263 139.035C48.4895 138.731 48.2358 138.443 47.9652 138.156C47.8299 138.003 47.7115 137.834 47.5761 137.665C47.4746 137.496 47.3732 137.326 47.2886 137.157C47.1363 136.836 47.001 136.514 46.8826 136.193C46.7304 135.702 46.612 135.211 46.4936 134.704C46.3075 133.722 46.206 132.724 45.8508 131.793C45.6816 131.354 45.4448 130.964 45.1742 130.592C44.9543 130.305 44.7344 130.017 44.5314 129.712C44.4638 129.628 44.413 129.526 44.3623 129.425C44.3284 129.374 44.3115 129.306 44.2946 129.255C44.2608 129.171 44.2439 129.086 44.2269 129.019C44.1931 128.849 44.1762 128.697 44.1593 128.528C44.1085 127.563 44.0409 126.565 43.8548 125.618C43.7533 125.076 43.5673 124.569 43.3981 124.044C43.2966 123.723 43.1951 123.384 43.0767 123.063C42.9414 122.741 42.7723 122.453 42.6031 122.149C42.5185 121.98 42.417 121.811 42.2817 121.658C42.1464 121.506 41.9265 121.404 41.7235 121.354C41.4191 121.269 41.0977 121.269 40.7763 121.269C40.4549 121.269 40.1166 121.269 39.7952 121.269C38.7634 121.269 37.7485 121.184 36.7167 121.184C35.2113 121.184 33.7227 121.184 32.2173 121.184C31.5069 121.184 30.7964 121.168 30.086 121.134C29.1726 121.1 28.2423 121.049 27.3289 121.032C25.7896 120.981 24.2334 121.032 22.6941 120.931C22.7111 120.931 22.7449 120.931 22.7618 120.931C21.9837 120.88 21.1887 120.863 20.3937 120.812C19.9032 120.778 19.4126 120.711 18.9221 120.677C18.4654 120.643 18.0256 120.626 17.5689 120.592C16.96 120.541 16.351 120.457 15.759 120.406C15.2346 120.355 14.7103 120.372 14.1859 120.372C13.374 120.372 12.5451 120.389 11.7332 120.44C11.7332 120.44 11.7163 120.44 11.6994 120.44C10.4815 120.508 9.24671 120.491 8.02883 120.508C7.92734 120.508 7.82586 120.508 7.72437 120.508C7.43682 120.508 7.14926 120.508 6.87862 120.575C6.45575 120.677 6.15128 121.032 5.79606 121.269C5.47468 121.472 5.13637 121.658 4.81499 121.861C4.30754 122.166 3.8339 122.538 3.34337 122.877C3.02198 123.08 2.71752 123.266 2.37922 123.435C2.37922 123.435 2.3454 123.435 2.32848 123.452C2.2439 123.401 2.14242 123.384 2.04093 123.367C2.0071 123.367 1.99018 123.367 1.95635 123.367C1.85486 123.198 1.77029 123.029 1.6688 122.877C1.43199 122.453 1.17825 122.014 0.941437 121.591C1.11059 121.54 1.29665 121.489 1.4658 121.421C1.90559 121.269 2.34538 121.066 2.78517 120.897C3.19113 120.761 3.61401 120.677 3.98614 120.474C4.40902 120.254 4.66273 119.814 4.66273 119.34C4.66273 118.748 4.66276 118.173 4.7135 117.58C4.74733 117.157 4.78116 116.717 4.76425 116.294C4.74733 115.939 4.69657 115.601 4.61199 115.262C4.52742 114.924 4.3921 114.602 4.22295 114.298C4.13838 114.163 4.05381 114.061 3.96924 113.926C3.95232 113.892 3.91848 113.858 3.90156 113.807C3.88465 113.756 3.85083 113.706 3.83391 113.655C3.83391 113.655 3.83391 113.638 3.83391 113.621C3.83391 113.587 3.83391 113.57 3.83391 113.536V113.469C3.95232 113.317 4.07073 113.147 4.20605 113.012C4.52743 112.674 4.8488 112.318 5.17019 111.997C5.55923 111.591 5.96521 111.235 6.37117 110.846C6.79404 110.457 7.19999 110.068 7.60595 109.679C7.79202 109.509 7.96117 109.323 8.13032 109.154C8.28255 109.306 8.43479 109.442 8.58703 109.577C8.94224 109.882 9.28054 110.203 9.66959 110.457C10.1263 110.778 10.6507 110.948 11.2258 110.948C11.5979 110.948 12.0039 110.897 12.3591 110.778C12.7481 110.66 13.1203 110.474 13.4586 110.254C13.6615 110.119 13.8476 109.983 14.0168 109.814C14.169 109.662 14.3043 109.493 14.4227 109.323C14.7103 108.968 15.0655 108.63 15.2854 108.224C15.4884 107.834 15.6237 107.411 15.8097 107.005C15.8267 106.971 15.8605 106.921 15.8774 106.887C15.8943 106.853 15.9282 106.819 15.9451 106.802C15.962 106.785 15.9958 106.751 16.0127 106.735C16.0635 106.701 16.1142 106.667 16.1649 106.616C16.2326 106.565 16.3172 106.531 16.4018 106.481C16.7401 106.312 17.0953 106.176 17.4674 106.058C17.6873 105.99 17.8903 105.922 18.1102 105.872C18.2286 105.855 18.347 105.838 18.4654 105.821C18.5669 105.821 18.6684 105.821 18.7699 105.821C18.8883 105.821 18.9898 105.855 19.1082 105.872C19.1758 105.888 19.2435 105.905 19.3281 105.939C19.3957 105.973 19.4465 105.99 19.5141 106.024C19.5818 106.058 19.6494 106.092 19.7171 106.142C19.7679 106.176 19.8186 106.21 19.8524 106.244C19.8863 106.261 19.9032 106.295 19.9201 106.312C19.9201 106.312 19.937 106.345 19.9539 106.345C19.9539 106.362 19.9878 106.396 19.9878 106.413C20.0047 106.464 20.0385 106.515 20.0554 106.582C20.0554 106.599 20.0554 106.616 20.0554 106.633C20.0554 106.667 20.0554 106.684 20.0554 106.718C20.0385 106.87 20.0216 107.039 19.9878 107.191C19.937 107.513 19.9032 107.834 19.8862 108.156C19.8862 108.511 19.8863 108.866 19.937 109.205C20.0216 109.679 20.2415 110.085 20.5459 110.457C20.6474 110.575 20.7489 110.677 20.8504 110.778C20.9519 110.88 21.0703 110.965 21.1887 111.049C21.324 111.134 21.4593 111.235 21.6116 111.286C21.8822 111.388 22.1359 111.455 22.4235 111.472C22.5419 111.472 22.6603 111.472 22.7787 111.472C23.2862 111.455 23.8105 111.438 24.318 111.32C24.7409 111.218 25.1976 111.066 25.5359 110.795C25.8065 110.592 26.0095 110.322 26.2125 110.051C26.4154 109.78 26.6015 109.493 26.8214 109.239C27.0582 108.951 27.295 108.68 27.498 108.376C27.7348 108.02 27.9547 107.665 28.1746 107.293C28.3607 106.971 28.5467 106.65 28.7328 106.345C29.0035 105.956 29.291 105.601 29.5955 105.246C29.9338 104.873 30.3059 104.535 30.678 104.196C30.9825 103.926 31.2701 103.655 31.5576 103.401C32.0482 102.995 32.6063 102.657 33.08 102.234C33.5705 101.811 34.078 101.388 34.5516 100.965C34.9575 100.592 35.3466 100.22 35.7525 99.831C36.3784 99.2219 36.7843 98.4436 37.2241 97.6991C37.4609 97.293 37.7147 96.87 37.9177 96.447C38.1375 96.007 38.3067 95.5164 38.4758 95.0595C38.7803 94.1628 38.7296 93.2152 38.7803 92.2846C38.7803 92.1492 38.8142 92.0139 38.8311 91.8785C38.8818 91.6247 38.9495 91.3878 39.034 91.151C39.2201 90.6264 39.44 90.1019 39.643 89.5773C39.7614 89.2558 39.8798 88.9344 39.9813 88.6129C40.0828 88.2407 40.1335 87.8515 40.1673 87.4623C40.2012 86.9208 40.1843 86.3794 40.1504 85.8549C40.1166 85.4826 40.0489 85.1273 40.032 84.7551C40.0151 84.2982 39.9982 83.8414 39.9813 83.3845C39.9813 83.2322 39.9813 83.063 39.9644 82.9108C39.9644 82.8262 39.9644 82.7415 39.9644 82.64C39.9644 82.5385 39.9644 82.4201 39.9474 82.3185C39.9474 82.1155 39.9136 81.9294 39.8967 81.7263C39.8798 81.3879 39.8629 81.0326 39.8798 80.6942C39.8967 80.4742 39.9305 80.2543 39.9644 80.0343C39.9982 79.8989 40.032 79.7636 40.0828 79.6451C40.2181 79.2898 40.3703 78.9345 40.5395 78.5792C40.6241 78.4269 40.7086 78.2915 40.7932 78.1562C41.1653 77.6485 41.5375 77.1409 41.9434 76.6672C42.1126 76.4641 42.2817 76.278 42.417 76.058C42.5524 75.8719 42.6708 75.6858 42.7892 75.4997C42.9583 75.2459 43.1613 74.992 43.3643 74.7552C43.7364 74.3491 44.1593 73.9768 44.5822 73.6046C44.9881 73.2323 45.3772 72.8432 45.8001 72.4709C45.8677 72.4033 45.9354 72.3525 46.02 72.2848C46.0538 72.2679 46.0707 72.251 46.0876 72.2171C46.1214 72.2002 46.1384 72.1664 46.1722 72.1494C46.6965 71.6926 47.204 71.2358 47.7284 70.7789C48.1682 70.4067 48.6249 70.0513 49.0985 69.7298C49.5044 69.4591 49.9273 69.1884 50.3164 68.8669C50.7223 68.5285 51.0944 68.1901 51.4497 67.784C51.8049 67.3779 52.1094 66.938 52.3631 66.4642C52.5999 66.0581 52.8367 65.6351 53.0397 65.2121C53.5133 64.2477 53.8854 63.2325 54.1053 62.1834C54.2068 61.6758 54.2745 61.1513 54.3083 60.6267C54.3252 60.2206 54.3252 59.8315 54.3421 59.4254C54.3591 59.2054 54.3929 58.9855 54.4267 58.7655C54.5113 58.3763 54.6297 57.9872 54.7481 57.6149C54.9003 57.1412 55.0526 56.6505 55.1879 56.1598C55.4585 55.2122 55.7461 54.2478 55.9322 53.2833C56.0167 52.8096 56.1013 52.3527 56.1351 51.8789C56.1859 51.3883 56.1859 50.8806 56.169 50.39C56.152 49.8993 56.152 49.3916 56.0505 48.901C55.9829 48.5964 55.8645 48.3257 55.763 48.038C55.7122 47.9027 55.6784 47.7504 55.6446 47.615C55.5938 47.3612 55.56 47.0905 55.5262 46.8367C55.5262 46.7182 55.5262 46.5998 55.5262 46.4644C55.56 46.0583 55.6277 45.6523 55.6953 45.2631C55.7968 44.7893 55.9152 44.3325 56.0674 43.8756C56.355 43.0973 56.6595 42.3359 56.947 41.5745C57.2008 40.8807 57.4545 40.187 57.6406 39.4764C58.0127 38.1397 58.148 36.7522 58.4187 35.3817C58.5878 34.6372 58.8077 33.8927 59.0614 33.182C59.349 32.3868 59.6873 31.6084 59.9917 30.8301C60.144 30.4071 60.2962 29.9841 60.4654 29.578C60.6176 29.2057 60.7868 28.8335 60.9728 28.4612C60.9728 28.4443 60.9897 28.4274 61.0067 28.4105C61.1589 28.1059 61.3111 27.7844 61.4633 27.463C61.6325 27.0738 61.8186 26.7015 61.9708 26.2954C62.1399 25.8386 62.2922 25.3818 62.4275 24.9249C62.5459 24.485 62.6812 24.0451 62.7489 23.6051C62.7996 23.216 62.8166 22.8268 62.7996 22.4376C62.7658 21.6762 62.6643 20.8979 62.5797 20.1365C62.5121 19.5273 62.4613 18.9351 62.4106 18.326C62.4106 18.3091 62.4106 18.2752 62.4106 18.2583C62.5121 18.0553 62.5628 17.8353 62.5966 17.5984C62.6474 17.1077 62.6474 16.617 62.6474 16.1433C62.6474 15.6357 62.6136 15.1281 62.5628 14.6205C62.5121 14.1636 62.4106 13.7068 62.326 13.2499C62.2414 12.81 62.1738 12.37 62.14 11.9132C62.14 11.6763 62.123 11.4225 62.14 11.1856C62.14 11.118 62.1399 11.0672 62.1738 10.9995C62.1738 10.9657 62.1907 10.9318 62.2076 10.898C62.2076 10.8642 62.2414 10.8303 62.2414 10.7965C62.2414 10.7965 62.2415 10.7626 62.2753 10.7626C62.4783 10.475 62.732 10.2212 62.935 9.95047C63.1549 9.66282 63.3578 9.35824 63.527 9.03676C63.713 8.66451 63.8822 8.29228 64.0175 7.88619C64.1359 7.53086 64.2543 7.17553 64.3727 6.8202C64.5757 6.24491 64.8125 5.68654 65.0832 5.12817C65.2185 4.87437 65.3538 4.62057 65.523 4.36676C65.6921 4.12988 65.8782 3.89299 66.0642 3.67303C66.0642 3.67303 66.115 3.62228 66.1319 3.60536C66.4195 3.28387 66.7239 2.9793 67.0453 2.67474C67.1637 2.57321 67.2821 2.4717 67.4174 2.38709C67.6035 2.26865 67.8065 2.15019 68.0095 2.04867C68.2632 1.93023 68.5 1.81179 68.7706 1.71027C68.906 1.67643 69.0413 1.62568 69.1766 1.59184C70.0054 1.43956 70.8681 1.42264 71.7138 1.35496C72.1536 1.32111 72.6103 1.30419 73.0501 1.32111C73.3884 1.35495 73.7267 1.38879 74.065 1.45647C74.2004 1.49031 74.3357 1.52414 74.4879 1.5749C74.5556 1.60874 74.6232 1.62567 74.674 1.65951C74.7247 1.69335 74.7755 1.71027 74.8262 1.74411C74.86 1.77796 74.9108 1.79488 74.9446 1.82872C74.9954 1.87948 75.0292 1.91333 75.0799 1.96409C75.1645 2.06561 75.2491 2.18405 75.3337 2.30249C75.5367 2.62397 75.7227 2.94546 75.9088 3.28387C76.0779 3.60535 76.2302 3.92683 76.4162 4.2314C76.6361 4.60365 76.8729 4.95896 77.1436 5.28045C77.4142 5.58501 77.6848 5.87267 77.9555 6.16031C78.0401 6.26183 78.1246 6.38028 78.2092 6.4818C78.3107 6.63408 78.3953 6.78636 78.4798 6.95557C78.6321 7.27705 78.7843 7.59853 78.9873 7.9031C79.2579 8.30919 79.5624 8.71527 79.9176 9.03676C80.1375 9.2398 80.3743 9.40902 80.6281 9.57822C80.8479 9.71358 81.0679 9.83202 81.3047 9.95047C81.5584 10.0689 81.8121 10.1873 82.0658 10.2889C82.1166 10.3058 82.1842 10.3396 82.235 10.3565C82.421 10.4411 82.6409 10.4919 82.8439 10.5258C83.3514 10.6273 83.8588 10.6611 84.3663 10.6611C85.2966 10.695 86.2439 10.6949 87.1742 10.7288C87.5971 10.7626 88.003 10.8134 88.4259 10.8472C88.8826 10.8811 89.3224 10.9149 89.7622 10.9826C90.1512 11.0672 90.5403 11.1856 90.9124 11.321C91.2169 11.4225 91.5044 11.541 91.792 11.6594C92.2825 11.8625 92.773 12.0655 93.2974 12.1839C93.8556 12.3193 94.4138 12.387 94.972 12.4377C95.6147 12.4885 96.2575 12.5393 96.8834 12.5054C97.7291 12.4716 98.4903 12.167 99.2177 11.7778C99.6744 11.524 100.114 11.2026 100.503 10.8642C100.96 10.4581 101.366 9.9843 101.636 9.44285C101.89 8.93524 102.127 8.42762 102.296 7.86925C102.448 7.4124 102.55 6.95555 102.702 6.51562C102.736 6.44794 102.753 6.38027 102.787 6.31259C102.821 6.31259 102.854 6.29566 102.905 6.27874C102.973 6.27874 103.057 6.26184 103.125 6.24492C103.227 6.24492 103.328 6.24492 103.429 6.24492C104.191 6.3126 104.952 6.41411 105.713 6.44795C106.559 6.49871 107.371 6.38028 108.183 6.1434C108.605 6.02496 109.028 5.87268 109.451 5.72039C109.79 5.58503 110.128 5.41582 110.483 5.26354C110.788 5.12818 111.109 5.02665 111.413 4.89129C111.718 4.75593 112.005 4.62057 112.31 4.50213C112.614 4.40061 112.936 4.31601 113.24 4.21449C113.511 4.11297 113.781 3.99451 114.018 3.85915C114.306 3.70687 114.576 3.50382 114.83 3.30078C114.999 3.1485 115.169 2.9793 115.338 2.82701C115.355 2.82701 115.371 2.79316 115.388 2.79316C115.388 2.79316 115.388 2.79316 115.405 2.79316C115.456 2.79316 115.507 2.79317 115.558 2.77625C115.608 2.77625 115.659 2.77625 115.71 2.77625C115.744 2.77625 115.777 2.77625 115.811 2.77625C115.794 2.77625 115.777 2.77625 115.761 2.77625C115.811 2.77625 115.862 2.79318 115.913 2.8101C115.98 2.84394 116.065 2.87778 116.133 2.91162C116.505 3.11466 116.86 3.36846 117.249 3.53766C117.672 3.72378 118.112 3.89299 118.568 3.99452C119.008 4.09604 119.448 4.16373 119.905 4.21449C120.429 4.24833 120.953 4.21447 121.461 4.14679C121.884 4.09603 122.307 4.01142 122.73 3.92682C123.203 3.8253 123.727 3.70686 124.133 3.45305C124.523 3.21617 124.878 2.92853 125.148 2.55628C125.284 2.38708 125.385 2.21788 125.487 2.03176C125.571 1.87947 125.656 1.71027 125.74 1.55799C125.791 1.49031 125.842 1.42264 125.893 1.35496C125.926 1.32111 125.943 1.30419 125.977 1.27035C126.028 1.23651 126.062 1.20267 126.113 1.16883C126.163 1.13499 126.214 1.11807 126.248 1.08422C126.299 1.0673 126.366 1.03345 126.417 1.01653C126.535 0.982688 126.671 0.948852 126.789 0.915011C127.111 0.86425 127.432 0.830423 127.753 0.796583C128.041 0.796583 128.328 0.779662 128.616 0.796583C128.988 0.830423 129.343 0.881169 129.699 0.96577C130.003 1.03345 130.291 1.10114 130.578 1.18574C130.713 1.2365 130.849 1.28727 130.984 1.35496C131.272 1.50724 131.542 1.6595 131.847 1.76103C132.236 1.89639 132.625 2.03175 133.031 2.13327C133.86 2.33632 134.688 2.4886 135.534 2.55628C136.008 2.60704 136.481 2.62397 136.955 2.64089C137.344 2.64089 137.75 2.67473 138.139 2.64089C138.613 2.60705 139.069 2.55629 139.526 2.45476C139.78 2.404 140.034 2.31939 140.27 2.23479C140.27 2.23479 140.27 2.23479 140.287 2.23479H140.321C140.321 2.23479 140.355 2.23479 140.372 2.23479C140.778 2.09943 141.167 1.96407 141.573 1.81178C142.097 1.64258 142.638 1.52416 143.18 1.40571C143.552 1.33803 143.924 1.28727 144.296 1.27035C144.651 1.25343 145.007 1.25343 145.362 1.27035C145.413 1.27035 145.463 1.28726 145.514 1.28726C145.514 1.28726 145.514 1.28728 145.514 1.3042C145.717 1.59184 145.903 1.8964 146.123 2.16712C146.394 2.45477 146.681 2.70857 146.986 2.96238C147.121 3.09774 147.273 3.23311 147.392 3.36847C147.527 3.53768 147.662 3.70686 147.781 3.87606C147.95 4.12987 148.085 4.38367 148.254 4.62056C148.44 4.89128 148.626 5.12816 148.846 5.38197C149.015 5.56809 149.185 5.77115 149.354 5.95728C149.506 6.12648 149.675 6.27875 149.827 6.44795C149.98 6.63408 150.115 6.85404 150.267 7.05709C150.436 7.27705 150.605 7.46318 150.808 7.64931C150.808 7.64931 150.775 7.63238 150.775 7.61546C150.825 7.6493 150.859 7.70005 150.91 7.73389C150.927 7.75081 150.944 7.78466 150.961 7.80158C150.994 7.85234 151.011 7.90311 151.045 7.93695C151.096 8.03847 151.13 8.12307 151.164 8.22459C151.231 8.42763 151.282 8.63066 151.35 8.81678C151.502 9.27363 151.773 9.67973 152.195 9.91662C152.72 10.2212 153.312 10.3227 153.87 10.5088C154.293 10.678 154.716 10.8811 155.156 11.0164C155.528 11.1349 155.9 11.2026 156.272 11.2195C156.898 11.2702 157.574 11.1349 158.116 10.7795C158.454 10.5427 158.742 10.255 159.046 9.98429C159.164 9.88277 159.283 9.79817 159.401 9.69665C159.452 9.66281 159.503 9.62896 159.553 9.61204C159.587 9.59512 159.638 9.5782 159.672 9.56128C159.756 9.54436 159.824 9.51053 159.909 9.49361C160.061 9.45977 160.213 9.44285 160.365 9.44285C160.45 9.44285 160.535 9.44285 160.636 9.44285C160.67 9.44285 160.721 9.44285 160.754 9.44285C160.771 9.44285 160.805 9.44284 160.822 9.45976C160.873 9.47668 160.907 9.4936 160.941 9.51052C161.346 9.73049 161.736 10.0181 162.192 10.1535C162.734 10.3058 163.292 10.3058 163.833 10.1197C164.324 9.95045 164.763 9.62898 165.169 9.29058C165.508 9.00293 165.846 8.68142 166.201 8.39378C166.387 8.24149 166.573 8.08922 166.759 7.95386C166.793 7.93694 166.827 7.90311 166.861 7.88619C166.895 7.88619 166.912 7.86926 166.945 7.85234C167.098 7.80158 167.25 7.76773 167.402 7.73389C167.504 7.71697 167.605 7.70005 167.723 7.68313C167.774 7.68313 167.808 7.68313 167.859 7.68313C167.893 7.68313 167.91 7.68313 167.943 7.68313C168.028 7.70005 168.129 7.73389 168.214 7.76773C168.265 7.78465 168.315 7.80159 168.366 7.83543C168.434 7.86927 168.485 7.90311 168.552 7.93695C168.603 7.98771 168.671 8.02155 168.721 8.07231C168.806 8.15691 168.891 8.22459 168.975 8.3092C169.026 8.35996 169.06 8.42762 169.11 8.47838C169.127 8.51222 169.161 8.54608 169.178 8.59684C169.297 8.85064 169.381 9.12137 169.483 9.39209C169.584 9.71358 169.652 10.0351 169.77 10.3396C169.821 10.5088 169.872 10.6611 169.939 10.8303C170.058 11.101 170.227 11.321 170.43 11.524C170.684 11.7609 170.971 11.9809 171.259 12.1839C171.479 12.3362 171.698 12.5054 171.918 12.6408C172.375 12.9115 172.866 13.0807 173.339 13.2668C173.762 13.436 174.168 13.6052 174.608 13.7575C174.743 13.8083 174.895 13.859 175.031 13.9267C175.098 13.9606 175.149 13.9944 175.2 14.0282C175.268 14.079 175.352 14.1298 175.42 14.1975C175.454 14.2313 175.504 14.2651 175.538 14.3159C175.572 14.3666 175.606 14.4005 175.64 14.4512C175.673 14.502 175.707 14.5528 175.724 14.6035C175.758 14.6881 175.792 14.7727 175.826 14.8573C175.91 15.1111 175.978 15.3649 176.029 15.6187C176.029 15.568 176.012 15.5341 175.995 15.4834C176.096 15.9741 176.215 16.4817 176.502 16.9047C176.705 17.2093 176.942 17.4631 177.263 17.6492C177.466 17.7676 177.686 17.8522 177.906 17.9538C178.16 18.0891 178.414 18.2245 178.667 18.3429C178.718 18.3598 178.786 18.3937 178.837 18.4106C178.854 18.5629 178.904 18.7321 178.938 18.8844C178.989 19.1043 179.04 19.3074 179.09 19.5273C179.124 19.7135 179.141 19.8827 179.175 20.0688C179.175 20.3395 179.192 20.6271 179.175 20.8979C179.158 21.1009 179.124 21.304 179.073 21.5239C178.989 21.8962 178.921 22.2684 178.803 22.6237C178.667 23.0298 178.549 23.4359 178.397 23.842C178.059 24.8234 177.703 25.8217 177.5 26.8369C177.416 27.2261 177.416 27.6152 177.399 28.0044C177.399 28.3259 177.399 28.6305 177.45 28.9519C177.517 29.3242 177.669 29.6795 177.839 30.0179C178.075 30.4917 178.38 30.9147 178.82 31.2193C179.31 31.5577 179.818 31.8453 180.376 32.0653C180.647 32.1668 180.917 32.2683 181.188 32.336C181.458 32.4037 181.729 32.4544 182.017 32.5052C182.118 32.5221 182.203 32.556 182.304 32.5898C182.355 32.6067 182.406 32.6237 182.456 32.6575C182.49 32.6575 182.507 32.6913 182.541 32.7083C182.558 32.7083 182.575 32.7421 182.592 32.7421C182.643 32.7928 182.676 32.8267 182.727 32.8774C182.795 32.962 182.845 33.0297 182.913 33.1143C182.964 33.182 182.998 33.2666 183.048 33.3343C183.082 33.4189 183.133 33.5204 183.167 33.605V33.3851Z" fill="#1E3D4C"/>
</svg>
