<svg width="407" height="355" viewBox="0 0 407 355" fill="none" xmlns="http://www.w3.org/2000/svg">
<path d="M404.395 211.919C405.264 212.016 406.132 212.112 407 212.209C405.505 214.138 404.203 216.213 402.707 218.142C400.923 220.458 399.041 222.725 397.16 224.992C395.472 227.019 393.88 229.141 392.144 231.167C391.131 232.277 390.118 233.338 389.105 234.448C387.899 235.798 386.694 237.197 385.536 238.596C384.523 239.802 383.558 241.057 382.594 242.311C381.725 243.372 380.809 244.433 379.941 245.495C378.06 247.81 376.227 250.174 374.346 252.489C372.464 254.805 370.487 257.072 368.606 259.388C366.821 261.559 365.085 263.778 363.3 265.948C361.274 268.312 359.345 270.724 357.415 273.185C355.631 275.452 353.894 277.719 352.061 279.938C350.228 282.109 348.444 284.328 346.659 286.547C344.874 288.718 343.042 290.792 341.305 292.963C339.569 295.134 337.88 297.401 336.048 299.475C335.324 300.296 334.552 301.067 333.829 301.839C333.298 302.37 332.816 302.949 332.285 303.479C331.562 304.203 330.887 304.975 330.211 305.747C330.211 305.747 330.163 305.795 330.115 305.843C329.825 305.747 329.536 305.602 329.198 305.554C328.619 305.361 327.993 305.361 327.365 305.216C327.076 305.168 326.787 305.12 326.497 305.071C326.16 305.071 325.87 305.023 325.581 304.975C325.05 304.83 324.52 304.685 323.941 304.589C322.976 304.492 322.011 304.444 321.047 304.396C319.166 304.251 317.284 304.107 315.403 304.107C313.185 304.107 311.014 304.203 308.795 304.396C306.962 304.541 305.178 304.782 303.345 304.975C302.428 305.071 301.464 305.12 300.547 305.264C299.582 305.409 298.57 305.602 297.605 305.795C294.759 306.374 291.962 307.049 289.164 307.725C286.222 308.448 283.231 309.124 280.578 310.667C279.228 311.439 278.07 312.404 276.961 313.465C275.851 314.526 274.983 315.829 274.115 317.083C272.62 319.302 271.317 321.666 269.87 323.933C269.581 324.319 269.34 324.705 269.05 325.043C268.809 325.284 268.568 325.525 268.327 325.766C268.23 325.863 268.134 325.911 267.989 326.008C267.941 326.008 267.844 326.104 267.796 326.104C267.796 326.104 267.7 326.104 267.652 326.152C267.507 326.152 267.41 326.201 267.266 326.249C266.928 326.297 266.639 326.345 266.301 326.345C263.841 326.49 261.333 326.538 258.873 326.538C257.474 326.538 256.123 326.538 254.725 326.538C253.519 326.538 252.313 326.442 251.107 326.635C249.467 326.876 247.779 327.455 246.621 328.709C245.705 329.674 245.03 330.88 244.306 331.989C243.727 332.954 243.245 333.967 242.714 334.932C242.521 335.27 242.329 335.656 242.136 335.993C241.75 335.8 241.364 335.656 240.93 335.511C239.435 334.98 237.891 334.594 236.299 334.691C235.19 334.739 234.08 334.884 233.019 335.077C232.392 335.173 231.814 335.27 231.187 335.366C230.318 335.463 229.45 335.656 228.534 335.704C227.617 335.704 226.701 335.704 225.784 335.656C225.591 335.656 225.398 335.656 225.205 335.607C225.109 335.607 225.061 335.607 224.964 335.559C224.82 335.511 224.675 335.414 224.53 335.366C224.241 334.739 224 334.112 223.662 333.533C223.276 332.761 222.794 332.086 222.215 331.507C221.395 330.639 220.43 329.819 219.369 329.191C218.549 328.709 217.633 328.275 216.716 327.985C215.848 327.696 214.932 327.648 214.015 327.696C212.472 327.841 210.88 328.13 209.529 328.902C208.516 329.529 207.504 330.253 206.587 330.976C205.719 331.652 204.899 332.375 204.031 333.002C203.597 333.292 203.162 333.485 202.68 333.726C202.246 333.967 201.812 334.208 201.378 334.45C200.702 334.787 199.979 335.077 199.304 335.414C198.58 335.8 197.953 336.234 197.23 336.62C196.651 336.91 196.024 337.151 195.445 337.392C194.963 337.537 194.528 337.634 194.046 337.73C193.323 337.923 192.551 338.164 191.876 338.502C191.152 338.839 190.332 339.225 189.705 339.708C188.837 340.335 188.113 341.155 187.293 341.879C186.618 342.506 185.991 343.133 185.364 343.808C185.364 343.808 185.364 343.808 185.316 343.856C184.399 344.918 183.579 346.027 182.856 347.233C182.325 348.15 181.843 349.115 181.409 350.031C181.023 350.9 180.685 351.768 180.299 352.636C180.106 353.022 179.913 353.36 179.672 353.746C179.528 353.939 179.383 354.132 179.238 354.276C179.142 354.373 179.094 354.421 178.997 354.518C178.901 354.566 178.852 354.662 178.756 354.71C178.611 354.807 178.515 354.855 178.37 354.904C178.274 354.904 178.177 355 178.081 355C177.791 355 177.502 355 177.261 355C176.923 355 176.585 354.952 176.199 354.904C176.055 354.904 175.91 354.807 175.765 354.759C175.283 354.566 174.801 354.373 174.27 354.228C173.74 354.083 173.209 353.939 172.678 353.746C170.315 352.877 168.096 351.768 165.829 350.658C164.672 350.031 163.514 349.404 162.356 348.825C161.343 348.343 160.33 347.909 159.269 347.474C158.208 347.089 157.099 346.703 155.941 346.703C155.893 346.703 155.796 346.703 155.748 346.703C153.867 346.751 152.082 347.282 150.25 347.716C149.574 347.86 148.899 347.957 148.224 348.005C147.934 348.005 147.597 348.005 147.307 348.005C146.391 347.909 145.474 347.812 144.606 347.619C144.172 347.523 143.786 347.426 143.352 347.33C143.304 347.33 143.256 347.33 143.207 347.282C143.159 347.282 143.111 347.185 143.014 347.137C142.87 346.992 142.677 346.847 142.532 346.654C142.194 346.268 141.905 345.834 141.471 345.497C141.085 345.207 140.651 344.966 140.217 344.677C139.059 343.905 137.95 343.133 136.792 342.361C136.551 342.216 136.358 342.072 136.117 341.927C134.959 341.155 133.802 340.287 132.741 339.418C132.162 338.839 131.631 338.212 130.956 337.682C130.474 337.296 129.991 336.862 129.509 336.524C128.544 335.849 127.579 335.173 126.567 334.594C125.457 333.967 124.3 333.437 123.19 332.713C121.309 331.362 119.573 329.867 117.692 328.516C115.907 327.262 114.122 326.056 112.337 324.85C111.71 324.416 111.083 324.03 110.505 323.547C110.167 323.258 109.829 322.968 109.395 322.775C108.913 322.583 108.431 322.534 107.9 322.486C107.514 322.486 107.128 322.486 106.742 322.438C105.343 322.341 103.945 322.245 102.498 322.148C100.472 322.004 98.4461 321.666 96.4202 321.473C95.8414 321.473 95.3109 321.376 94.7803 321.328C94.2015 321.28 93.6708 321.135 93.1402 321.039C92.1273 320.846 91.0662 320.749 90.0533 320.701C89.2333 320.653 88.4133 320.508 87.5933 320.412C86.918 320.315 86.2428 320.219 85.5675 320.122C84.7958 319.929 84.024 319.736 83.2522 319.495C83.0593 319.206 82.8663 318.868 82.6252 318.579C82.384 318.289 82.0946 317.951 81.8534 317.662C81.1299 316.842 80.4065 316.022 79.8277 315.105C79.5382 314.671 79.297 314.285 79.0076 313.851C78.8629 313.658 78.6699 313.465 78.5252 313.272C78.5252 313.272 78.5253 313.176 78.4771 313.127C78.4771 313.127 78.4771 313.224 78.4771 313.272C78.3806 312.983 78.2842 312.741 78.1877 312.5C78.1877 312.163 78.1394 311.777 78.0911 311.391C78.0911 311.535 78.0911 311.632 78.0911 311.777C77.9947 310.571 78.0911 309.316 78.0911 308.11C78.0911 306.133 78.2359 304.107 78.043 302.129C77.8983 300.681 77.4642 299.234 76.9818 297.883C76.403 296.436 75.6313 295.037 74.4254 293.976C73.6055 293.252 72.689 292.674 71.6761 292.384C70.5667 292.046 69.3608 291.95 68.2032 291.95C67.2868 291.95 66.3703 291.998 65.5021 292.191C64.7303 292.336 64.0069 292.481 63.2834 292.77C62.9457 292.867 62.6563 293.011 62.3186 293.108C62.2222 293.108 62.1257 293.156 62.0292 293.204C61.981 293.204 61.8845 293.108 61.8363 293.059C61.7398 293.011 61.6433 292.915 61.5469 292.867C61.4504 292.77 61.4022 292.674 61.3057 292.625C60.4375 291.612 59.6658 290.503 58.894 289.393C58.1705 288.284 57.4952 287.126 56.9164 285.968C56.5788 285.293 56.2894 284.617 56.0482 283.894C55.5659 282.495 55.2282 280.999 54.8905 279.552C54.794 279.07 54.7458 278.636 54.6975 278.153C54.6493 276.706 54.6975 275.259 54.6975 273.812C54.6975 272.557 54.6011 271.303 54.3117 270.097C54.0223 268.843 53.5399 267.589 53.2023 266.334C52.8164 264.935 52.3824 263.536 51.9 262.186C51.4659 260.98 50.9836 259.725 50.3084 258.616C49.199 256.783 47.8001 255.191 46.2566 253.695C45.3401 252.779 44.3273 252.007 43.3626 251.187C42.8803 250.753 42.3979 250.27 41.9155 249.74C41.819 249.595 41.7226 249.499 41.6261 249.354C41.5296 249.209 41.4815 249.064 41.385 248.92C40.8544 247.81 40.4202 246.701 39.6485 245.736C38.925 244.819 38.0086 243.999 37.044 243.324C36.1757 242.745 35.3075 242.359 34.3429 242.021C33.6676 241.78 32.944 241.539 32.317 241.249C31.9793 241.057 31.5934 240.864 31.2558 240.719C30.9664 240.574 30.6287 240.429 30.3393 240.333C30.2429 240.333 30.1947 240.236 30.0982 240.188C30.0982 240.188 30.0499 240.188 30.0017 240.14H29.9535C29.9535 240.14 29.8571 239.947 29.8088 239.899C29.3747 239.223 28.9888 238.5 28.5547 237.824C28.1206 237.149 27.7347 236.474 27.3488 235.798C26.8665 234.834 26.4324 233.869 26.0466 232.856C25.516 231.505 25.0818 230.106 24.2618 228.9C23.2489 227.356 22.0913 225.861 20.7408 224.558C20.0655 223.883 19.3419 223.256 18.5219 222.725C17.6055 222.05 16.6409 221.567 15.628 221.037C14.6151 220.554 13.5539 220.12 12.4445 219.879C11.3833 219.638 10.3221 219.493 9.21275 219.348C8.2963 219.204 7.42809 219.011 6.51164 218.866C5.54696 218.721 4.58235 218.721 3.56943 218.721C3.42473 218.721 3.28004 218.721 3.13534 218.673C3.08711 218.673 3.03883 218.673 2.94236 218.625C2.89413 218.625 2.8459 218.625 2.79766 218.577C2.65296 218.48 2.50828 218.432 2.36357 218.335C2.02594 218.094 1.73647 217.853 1.39883 217.612C1.3506 217.563 1.30237 217.515 1.25414 217.467C1.25414 217.419 1.15772 217.371 1.15772 217.322C0.964784 217.033 0.820052 216.792 0.675349 216.502C0.482412 216.068 0.241218 215.634 0.0482813 215.152C0.0482813 215.055 0.0482342 215.007 0 214.91C0 214.91 4.71048e-05 214.621 0.0482813 214.476C0.14475 214.042 0.241253 213.656 0.385956 213.222C0.385956 213.125 0.482371 213.029 0.482371 212.932C0.482371 212.932 0.482371 212.932 0.482371 212.884C0.723542 212.643 1.01296 212.402 1.25414 212.161C1.78471 211.726 2.31533 211.341 2.65297 210.713C2.94237 210.183 3.087 209.652 3.18347 209.073C3.61758 206.951 3.56932 204.732 3.90696 202.609C4.00342 202.223 4.09993 201.789 4.24463 201.403C4.29287 201.258 4.34114 201.114 4.43761 200.969C4.43761 200.969 4.53407 200.969 4.58231 200.969C4.87171 200.969 5.11295 200.872 5.40235 200.872C6.3188 200.872 7.28342 200.872 8.19987 200.921C8.34457 200.921 8.48926 200.921 8.63396 200.969C8.92336 201.017 9.1646 201.114 9.454 201.21C9.88811 201.355 10.3222 201.5 10.7563 201.644C10.6598 201.644 10.5151 201.548 10.4186 201.5C11.3833 201.837 12.3479 202.078 13.4091 202.078C14.8561 202.078 16.3032 201.934 17.702 201.692C19.5349 201.307 21.416 200.631 23.0559 199.763C23.9241 199.329 24.6959 198.798 25.5159 198.219C25.6124 198.219 25.6606 198.123 25.757 198.074C25.9982 197.978 26.2395 197.881 26.4807 197.785C27.1077 197.496 27.6382 197.158 28.0723 196.627C28.5064 196.048 28.7959 195.325 28.7477 194.553C28.7477 194.263 28.7476 194.022 28.6994 193.733C28.6512 192.672 28.6512 191.562 28.603 190.501C28.5547 188.378 28.6029 186.256 28.5064 184.133C28.4582 182.107 28.3617 180.033 28.3617 178.007V173.327C28.3617 173.327 28.3617 172.99 28.3617 172.797C28.6511 172.459 28.9406 172.169 29.1818 171.832C29.8088 171.108 30.3876 170.385 30.87 169.613C32.0758 167.78 32.8958 165.802 33.5711 163.727C34.2946 161.653 34.7286 159.531 35.1145 157.36C35.4521 155.382 35.5968 153.356 35.5968 151.33C35.5968 149.304 35.3557 147.229 35.211 145.203C35.0181 143.177 34.8734 141.151 34.584 139.125C34.3428 137.34 34.0533 135.603 33.9086 133.77C33.9086 133.095 33.9086 132.419 33.9086 131.744C33.9569 130.972 34.1016 130.2 34.2463 129.429C34.3428 129.091 34.4392 128.753 34.5357 128.416C34.5839 128.271 34.6322 128.126 34.7287 127.981C34.8734 127.692 35.0181 127.451 35.211 127.21C35.1628 127.306 35.0663 127.403 35.0181 127.499C35.1145 127.354 35.2593 127.21 35.3557 127.113C35.6451 126.824 35.8862 126.582 36.1756 126.293C36.9956 125.618 37.8638 124.99 38.732 124.363C39.6003 123.784 40.4686 123.254 41.385 122.771C41.8673 122.53 42.3496 122.337 42.832 122.193C43.0731 122.096 43.3626 122.048 43.6037 122C43.7484 122 43.9414 122 44.0861 121.951C44.1826 121.951 44.2791 121.951 44.4238 121.951C44.5203 121.951 44.5684 121.951 44.6649 121.951C44.7614 121.951 44.8578 122 44.9543 122.048C45.4366 122.241 45.8708 122.482 46.3531 122.675C46.8355 122.868 47.366 123.109 47.9448 123.109C48.9095 123.157 49.826 122.964 50.5978 122.337C52.093 121.179 52.5753 119.202 52.9612 117.417C53.2506 116.163 53.4435 114.908 53.6847 113.654C53.9258 112.593 54.1188 111.483 54.36 110.422C54.6494 109.071 54.9388 107.72 55.2765 106.418C55.6623 104.923 55.9035 103.379 56.0482 101.835C56.0965 100.967 56.1929 100.147 56.1447 99.2784C56.1447 98.4101 55.9517 97.4935 55.807 96.6252C55.5658 95.178 55.2282 93.7308 55.0835 92.2354C55.0835 92.0907 55.0835 91.8977 55.0835 91.753C55.0835 91.56 55.1317 91.4153 55.1799 91.2223C55.2764 90.8846 55.3728 90.547 55.4693 90.2093C55.6622 89.6787 55.9035 89.148 56.1447 88.6174C56.7717 87.4596 57.4469 86.35 58.1704 85.2405C59.2316 83.745 60.3893 82.3461 61.5951 80.9471C63.1386 79.2105 64.7304 77.4739 66.4186 75.9302C66.9009 75.496 67.3832 75.1101 67.9138 74.7724C68.2997 74.5312 68.7337 74.29 69.1678 74.0488C69.5054 73.9041 69.8431 73.7594 70.229 73.6147C71.0972 73.3252 71.9172 73.0358 72.7372 72.5534C73.5572 72.071 74.3772 71.4921 75.1489 70.9614C76.1136 70.2861 76.8854 69.5142 77.5606 68.5976C78.0912 67.9223 78.6217 67.2469 79.1523 66.5233C79.8276 65.6068 80.31 64.5455 80.8888 63.5807C81.4676 62.5676 82.1428 61.6028 82.6252 60.5415C83.2522 59.1426 83.7828 57.6954 84.1687 56.1999C84.5546 54.7527 84.844 53.3537 85.0852 51.8583C85.3746 50.6523 85.7122 49.4945 86.098 48.2885C86.4357 47.1308 86.7733 45.973 87.1109 44.8152C87.5933 43.0786 88.0757 41.3902 88.6063 39.7018C89.0886 38.2546 89.5709 36.8073 90.0533 35.3601C91.2591 31.6938 92.3684 28.0276 93.2849 24.2648C93.719 22.3835 93.9603 20.5021 94.1532 18.5725C94.1532 18.3313 94.1531 18.1384 94.2013 17.8972C94.9249 17.8972 95.6484 17.8972 96.3719 17.8972C96.9025 17.8972 97.433 17.8972 97.9636 17.8972C98.4459 17.8972 98.9767 17.8972 99.459 17.8972C100.231 17.8972 100.906 17.7524 101.629 17.5112C102.305 17.27 102.932 16.7876 103.607 16.4499C104.427 16.0158 105.199 15.5816 106.019 15.1474C106.26 15.0027 106.549 14.9063 106.791 14.8098C107.176 14.7133 107.514 14.6168 107.9 14.5204C108.189 14.5204 108.479 14.4239 108.72 14.4239C108.816 14.4239 108.961 14.4239 109.058 14.4239C109.154 14.4239 109.25 14.4239 109.347 14.4239C109.492 14.4239 109.588 14.4721 109.733 14.5204C109.974 14.6168 110.215 14.7133 110.456 14.8098C110.553 14.8098 110.601 14.9063 110.697 14.9545C110.842 15.0992 111.035 15.1957 111.18 15.3404C111.421 15.5816 111.662 15.8228 111.903 16.064C112.627 16.9323 113.35 17.8007 114.17 18.5725C115.087 19.4408 116.1 20.1162 117.161 20.7915C118.174 21.4187 119.283 21.8528 120.489 21.7081C121.743 21.5634 122.949 20.9363 123.817 20.068C125.023 18.862 125.843 17.463 126.567 15.9675C127.145 14.8097 127.531 13.6038 127.965 12.446C128.399 11.24 128.834 10.0823 129.219 8.87626C129.654 7.67025 130.039 6.41596 130.377 5.20995C130.666 4.14867 130.859 3.03918 131.052 1.92965C131.101 1.68845 131.149 1.49547 131.245 1.30251C131.294 1.15779 131.342 1.01308 131.438 0.868363C131.438 0.771882 131.535 0.723627 131.583 0.627147C131.583 0.627147 131.583 0.578886 131.631 0.530646C131.631 0.530646 131.728 0.482458 131.728 0.434218C131.776 0.434218 131.824 0.385957 131.872 0.337717C132.017 0.289477 132.162 0.192955 132.306 0.144715C132.499 0.0964746 132.644 0.0482402 132.837 0C132.933 0 132.982 0 133.078 0C133.175 0 133.223 0 133.319 0C133.368 0 133.416 0 133.464 0C133.512 0 133.609 4.71107e-05 133.657 0.0482874C133.802 0.0965276 133.898 0.144762 134.043 0.193002C134.284 0.337723 134.525 0.482426 134.718 0.627147C135.393 1.10955 136.02 1.59194 136.648 2.12258C136.744 2.21906 136.84 2.31553 136.937 2.41201C137.082 2.60497 137.226 2.7497 137.371 2.94266C137.564 3.2321 137.757 3.56979 137.901 3.85923C138.046 4.19692 138.191 4.53463 138.336 4.87231C138.577 5.6924 138.818 6.56067 139.059 7.38075C139.3 8.29732 139.542 9.31037 139.976 10.1787C140.458 11.1435 141.037 12.0601 141.809 12.8319C143.014 13.9897 144.847 14.665 146.535 14.4721C148.031 14.3274 149.381 13.652 150.635 12.7837C151.166 12.3978 151.696 12.0118 152.227 11.6259C152.565 11.3847 152.951 11.1435 153.288 10.8541C153.529 10.6611 153.771 10.4199 154.012 10.227C154.108 10.227 154.253 10.1305 154.349 10.0823C154.88 9.88931 155.41 9.74453 155.989 9.64805C156.52 9.55157 157.051 9.45515 157.581 9.40691C158.112 9.40691 158.69 9.40691 159.221 9.40691C160.861 9.55163 162.501 9.93751 164.093 10.2752C165.25 10.5164 166.408 10.7094 167.566 10.9506C167.807 10.9988 168.048 11.047 168.241 11.1435C168.241 11.1435 168.337 11.1435 168.386 11.1918C168.916 11.4812 169.35 11.8189 169.881 12.1083C170.604 12.5425 171.328 12.8802 172.1 13.1696C173.498 13.7003 175.042 13.9897 176.489 14.1344C178.081 14.3274 179.672 14.3756 181.264 14.2791C182.663 14.1827 184.062 14.0379 185.46 13.9414C186.57 13.8932 187.679 13.8449 188.74 13.9414C189.512 13.9897 190.236 14.0862 190.959 14.2309C191.248 14.2792 191.49 14.3756 191.779 14.4239C192.117 14.5686 192.406 14.665 192.696 14.858C193.805 15.4369 194.866 16.1123 195.879 16.7877C196.458 17.2218 197.037 17.6559 197.615 18.0901C198.773 19.1514 199.882 20.2609 200.992 21.3705C202.198 22.5765 203.404 23.7342 204.561 25.0367C205.574 26.2427 206.539 27.4487 207.6 28.6547C208.758 29.9572 210.012 31.2114 211.266 32.4174C212.52 33.6717 213.629 35.0224 214.835 36.3249C215.993 37.5791 217.343 38.5922 218.646 39.7018C219.08 40.0877 219.466 40.5219 219.851 40.9078C221.25 42.5962 222.553 44.4775 224.337 45.78C225.736 46.7448 227.28 47.4202 228.775 48.1438C229.112 48.2885 229.402 48.4815 229.691 48.6745C230.222 49.0604 230.704 49.4463 231.187 49.8322C232.007 50.604 232.778 51.4242 233.55 52.2925C234.37 53.209 235.045 54.2703 235.769 55.2833C235.865 55.4763 236.01 55.6692 236.106 55.8622C236.203 56.1034 236.299 56.3447 236.396 56.5859C236.54 56.9718 236.637 57.4059 236.733 57.7919V57.8883C237.119 59.6732 237.602 61.4581 238.132 63.1947C238.47 64.256 238.904 65.1726 239.628 65.9927C240.158 66.6198 240.785 67.1504 241.364 67.7776C241.991 68.4047 242.618 69.0318 243.39 69.5142C243.824 69.8036 244.306 70.0449 244.74 70.2861C245.367 70.6237 245.994 70.9132 246.718 71.1544C247.104 71.2991 247.49 71.3956 247.876 71.4921C247.924 71.4921 247.972 71.4921 248.068 71.5403C247.345 72.9875 246.621 74.4347 245.85 75.882C245.126 77.3292 244.306 78.6317 243.438 80.0306C242.859 80.9954 242.28 81.9602 241.702 82.8768C241.557 83.0697 241.46 83.2145 241.316 83.4074C240.351 84.4687 239.242 85.3852 238.325 86.543C237.457 87.6525 236.733 88.9068 236.106 90.2093C235.817 90.8364 235.528 91.4635 235.238 92.1389C235.045 92.6695 234.804 93.2002 234.659 93.779C234.563 94.0685 234.466 94.3097 234.37 94.5991C233.936 95.8534 233.502 97.1077 233.212 98.4101C232.923 99.7126 232.778 101.112 232.633 102.462C232.489 103.717 232.441 104.923 232.537 106.177C232.585 107.286 232.634 108.444 232.537 109.554C232.441 110.615 232.296 111.676 232.199 112.689C232.055 114.233 231.717 115.921 232.344 117.369C233.164 119.346 235.286 120.408 237.168 121.18C238.615 121.758 240.11 122.048 241.653 122.289C243.1 122.53 244.547 122.723 245.994 122.723C246.091 122.723 246.236 122.723 246.332 122.723C247.634 122.723 248.985 122.627 250.287 122.578C251.782 122.53 253.278 122.386 254.773 122.193C255.979 122 257.233 121.855 258.487 121.758C259.114 121.758 259.693 121.758 260.32 121.758C261.092 121.807 261.863 121.855 262.635 121.903C262.635 121.951 262.635 122 262.587 122.096C262.249 123.061 261.863 124.074 261.526 125.039C261.285 125.859 261.043 126.631 260.802 127.451C260.416 128.801 260.127 130.2 259.934 131.551C259.838 132.275 259.741 132.998 259.693 133.722C259.596 134.687 259.548 135.7 259.693 136.616C259.837 137.581 260.175 138.498 260.561 139.414C261.043 140.524 261.815 141.44 262.587 142.357C263.166 143.032 263.696 143.804 264.323 144.431C264.806 144.914 265.336 145.3 265.819 145.734C265.915 145.83 265.963 145.879 266.06 145.975C266.301 146.313 266.542 146.65 266.832 146.94C267.121 147.277 267.459 147.615 267.748 148.001C268.23 148.58 268.713 149.159 269.147 149.786C269.147 149.786 269.147 149.882 269.195 149.882C269.291 150.22 269.388 150.558 269.436 150.895C269.484 151.185 269.533 151.426 269.581 151.716C269.726 152.487 269.918 153.259 270.256 153.983C270.546 154.706 270.98 155.334 271.317 156.009C272.041 157.504 272.571 159.096 273.44 160.544C273.97 161.364 274.549 162.087 275.176 162.811C275.707 163.39 276.189 163.969 276.768 164.451C277.588 165.223 278.456 165.85 279.469 166.332C280.096 166.622 280.771 166.863 281.446 167.104C282.17 167.345 282.893 167.635 283.569 167.973C283.713 168.069 283.906 168.166 284.051 168.262C284.148 168.358 284.292 168.455 284.389 168.551C284.437 168.6 284.533 168.696 284.582 168.744C284.678 168.841 284.726 168.937 284.823 169.034C285.546 170.192 286.077 171.494 286.849 172.652C287.91 174.244 289.164 175.643 290.273 177.235C290.563 177.717 290.9 178.151 291.238 178.585C291.865 179.309 292.589 179.984 293.36 180.515C294.084 181.046 294.807 181.576 295.531 182.059C296.351 182.589 297.219 182.975 298.184 183.265C298.907 183.506 299.679 183.699 300.402 183.892C301.849 184.326 303.345 184.664 304.84 185.098C306.046 185.436 307.252 185.677 308.458 186.063C309.085 186.304 309.712 186.497 310.339 186.69C310.917 186.835 311.496 186.979 312.075 187.172C313.136 187.558 314.198 187.944 315.259 188.33C315.21 188.33 315.162 188.33 315.066 188.282C315.645 188.475 316.175 188.668 316.706 188.957C317.429 189.343 318.153 189.825 318.973 190.163C319.696 190.452 320.42 190.694 321.095 190.983C321.818 191.369 322.494 191.755 323.217 192.141C323.989 192.527 324.761 192.816 325.533 193.202C326.256 193.588 326.931 194.022 327.655 194.408C328.571 194.891 329.536 195.18 330.501 195.518C331.61 195.904 332.719 196.386 333.829 196.772C334.89 197.158 335.999 197.496 337.06 197.882C338.073 198.267 339.038 198.702 340.003 199.136C340.919 199.57 341.884 199.908 342.8 200.245C343.765 200.583 344.681 200.969 345.55 201.403C346.321 201.789 347.141 202.175 347.961 202.513C348.83 202.85 349.698 203.14 350.566 203.526C351.434 203.912 352.254 204.297 353.171 204.587C354.039 204.876 354.907 205.166 355.775 205.455C356.885 205.841 357.946 206.372 359.055 206.806C360.213 207.24 361.322 207.674 362.48 208.157C364.506 209.025 366.483 209.942 368.509 210.858C370.246 211.63 372.03 212.209 373.815 212.836C374.538 213.077 375.214 213.27 375.937 213.463C376.516 213.608 377.047 213.704 377.625 213.897C378.252 214.09 378.831 214.283 379.507 214.38C379.796 214.38 380.085 214.428 380.327 214.428C380.375 214.428 380.423 214.428 380.471 214.428C380.761 214.428 381.05 214.38 381.388 214.331C382.015 214.331 382.642 214.331 383.269 214.235C384.571 214.138 385.825 213.849 387.128 213.704C388.526 213.56 389.973 213.463 391.372 213.318C392.578 213.174 393.784 212.981 395.038 212.884C396.099 212.836 397.112 212.739 398.173 212.643C399.138 212.547 400.151 212.402 401.164 212.305C402.128 212.257 403.141 212.209 404.106 212.257L404.395 211.919Z" fill="#A79D4B"/>
</svg>
