<svg width="75" height="100" viewBox="0 0 75 100" fill="none" xmlns="http://www.w3.org/2000/svg">
<path d="M74.7056 8.451C74.638 8.6202 74.5703 8.78941 74.5027 8.95861C74.3335 9.41546 74.1643 9.85539 73.9444 10.2784C73.7584 10.6337 73.5554 10.9891 73.3186 11.3275C72.9296 11.8689 72.5236 12.3934 72.1346 12.9349C71.9316 13.2225 71.7286 13.5102 71.5087 13.7978C71.3395 14.0178 71.1535 14.2377 70.9674 14.4577C70.663 14.7961 70.3416 15.1345 70.0033 15.456C70.0371 15.4222 70.0709 15.4053 70.1048 15.3714C69.7157 15.7098 69.3605 16.0652 68.9884 16.4036C68.8023 16.5558 68.6162 16.725 68.4471 16.8773C68.3287 16.9958 68.2103 17.1142 68.0749 17.2326C67.9396 17.3511 67.7874 17.4695 67.6352 17.588C67.4999 17.7064 67.3645 17.8079 67.2461 17.9602C67.2123 17.9941 67.1785 18.0448 67.1616 18.0956C67.1108 18.1294 67.0601 18.1633 67.0093 18.1971C66.7894 18.3494 66.671 18.5693 66.5865 18.8231C66.5188 18.9923 66.5357 19.1785 66.5188 19.3646C66.5188 19.483 66.5188 19.6015 66.5188 19.7199C66.5188 20.0752 66.5188 20.4306 66.5188 20.8028C66.5188 21.3273 66.5188 21.8519 66.468 22.3764C66.4004 23.2563 66.3158 24.1361 66.2481 25.0329C66.1805 26.0481 66.1128 27.0464 66.062 28.0616C66.0113 28.9753 66.0451 29.8721 66.0113 30.7858C65.9436 32.7824 66.0113 34.7959 65.9775 36.8094C65.9267 40.7857 66.0283 44.7619 66.0452 48.7382C66.0452 49.7873 66.0451 50.8363 66.0113 51.8854C65.9775 52.9514 65.9606 54.0004 65.9606 55.0664C65.9606 56.5046 65.9267 57.9429 66.0282 59.3811C66.0282 59.4149 66.0282 59.4318 66.0282 59.4657C66.0282 59.6518 66.0451 59.8548 66.062 60.041C66.062 60.2271 66.0959 60.4132 66.1636 60.5993C66.2651 60.8024 66.4004 60.9547 66.5526 61.1239C66.6372 61.2254 66.7217 61.3438 66.8063 61.4623C67.0431 61.8514 67.28 62.2237 67.5168 62.6129C67.7367 62.9682 67.9734 63.3235 68.1764 63.6958C68.3963 64.068 68.5993 64.4572 68.8361 64.8125C69.0729 65.1847 69.3436 65.5401 69.6311 65.8785C70.3416 66.7245 71.0182 67.5705 71.644 68.4842C71.6779 68.535 71.6948 68.5688 71.7286 68.6195C71.3565 69.0764 70.9844 69.5163 70.5953 69.9563C69.5804 71.0899 68.5486 72.2236 67.4153 73.2388C66.9247 73.6618 66.4342 74.051 65.8929 74.4063C65.4193 74.7278 64.9288 75.0324 64.4382 75.3031C64.0661 75.5061 63.6771 75.7092 63.288 75.8953C62.5945 76.2337 61.8841 76.5213 61.2413 76.9105C60.7508 77.2151 60.2771 77.5535 59.8373 77.9426C59.3975 78.3487 59.0254 78.8394 58.6871 79.3301C58.2135 80.0069 57.7906 80.7006 57.4523 81.462C57.2832 81.8343 57.1309 82.2235 56.9956 82.5957C56.8434 83.0018 56.6912 83.4248 56.5897 83.8478C56.4036 84.5585 56.2683 85.2691 56.1837 85.9967C56.116 86.6058 56.0653 87.2319 55.9469 87.8241C55.8623 88.1963 55.7439 88.5517 55.6255 88.907C55.4056 89.5161 55.1519 90.1083 54.8643 90.6836C54.526 91.3435 54.1539 91.9865 53.7479 92.6125C53.2574 93.3232 52.7669 94.0169 52.2763 94.7275C51.7012 95.5736 51.0584 96.3857 50.4157 97.1641C49.8744 97.824 49.3331 98.4839 48.7749 99.1268C48.6396 99.2791 48.5043 99.4145 48.3859 99.5668C48.3351 99.516 48.2675 99.4822 48.2167 99.4314C48.1829 99.4145 48.166 99.3807 48.1322 99.3637C47.9799 99.2284 47.8108 99.1099 47.6416 98.9746C47.4386 98.8053 47.2526 98.6361 47.0496 98.4838C46.7789 98.2639 46.4914 98.0608 46.2038 97.8578C45.8655 97.604 45.5272 97.3333 45.1889 97.0795C44.4785 96.538 43.7342 96.0135 43.0238 95.4552C42.6686 95.1844 42.3303 94.9137 41.9582 94.6599C41.6368 94.423 41.3154 94.1861 41.0279 93.9323C40.7403 93.6785 40.4697 93.4078 40.1821 93.154C40.1821 93.154 40.1652 93.1371 40.1483 93.1201C39.7931 92.7987 39.4717 92.4433 39.0996 92.1387C38.8458 91.9188 38.5583 91.7327 38.3046 91.5127C38.1862 91.3943 38.0508 91.2758 37.9155 91.1912C37.7125 91.0389 37.4926 90.9374 37.2389 90.8697C37.0359 90.819 36.8329 90.7852 36.6299 90.7513C36.4439 90.7175 36.2409 90.7005 36.0548 90.6667C36.0548 90.6667 36.0379 90.6667 36.021 90.6667C35.9703 90.6159 35.9364 90.5652 35.8857 90.5313C35.7842 90.4129 35.6996 90.3114 35.615 90.1929C35.615 90.176 35.5812 90.1422 35.5812 90.1253C35.5812 89.9561 35.5812 89.8038 35.5981 89.6346C35.6151 89.3469 35.6489 89.0593 35.6996 88.7716C35.7504 88.5855 35.8011 88.3825 35.8519 88.1963C36.0379 87.6887 36.2747 87.1811 36.3085 86.6396C36.3424 86.1659 36.2748 85.6752 36.2409 85.2015C36.2409 85.0323 36.2409 84.8461 36.224 84.6769C36.1902 84.2878 36.0041 83.9155 35.6827 83.6786C35.3782 83.4417 35.023 83.2387 34.7017 83.0187C34.1435 82.6465 33.5514 82.325 32.9763 82.0035C32.4012 81.682 31.843 81.3267 31.2848 80.9714C30.439 80.413 29.5595 79.8885 28.6968 79.3639C28.3077 79.1271 27.9356 78.8902 27.5466 78.6533C27.0899 78.3656 26.6501 78.078 26.1934 77.7904C25.7874 77.5535 25.3646 77.3335 24.9755 77.0628C24.5696 76.7921 24.1636 76.5213 23.7407 76.2675C22.895 75.7599 22.0492 75.2692 21.1865 74.8124C20.29 74.3386 19.4274 73.8141 18.5647 73.3065C17.6682 72.7819 16.7548 72.2743 15.8922 71.6991C15.4524 71.4114 15.0126 71.1407 14.5559 70.9038C14.0822 70.65 13.6086 70.3793 13.1519 70.0916C12.6783 69.7871 12.2047 69.4825 11.731 69.1949C11.2912 68.9241 10.8515 68.6534 10.4117 68.3658C9.87039 67.9935 9.32911 67.6213 8.77091 67.249C8.39878 66.9952 8.02666 66.7414 7.67145 66.4707C7.2824 66.183 6.9272 65.8616 6.52124 65.5739C6.11528 65.2863 5.69238 64.9986 5.28642 64.711C4.88046 64.4233 4.4745 64.1188 4.06854 63.8142C3.69641 63.5435 3.34122 63.2727 2.98601 62.9682C2.32632 62.4098 1.70044 61.8176 0.956184 61.3438C0.702459 61.1916 0.448765 61.0393 0.195039 60.887C0.195039 60.887 0.178091 60.887 0.161176 60.887C0.127346 60.8024 0.093539 60.7178 0.0258789 60.6501C0.0258789 59.3811 0.0935348 58.1121 0.127365 56.843C0.14428 55.8786 0.161176 54.9141 0.161176 53.9327C0.161176 53.036 0.144294 52.1223 0.195039 51.2086C0.195039 51.0563 0.228832 50.904 0.262662 50.7517C0.296492 50.6164 0.330335 50.481 0.38108 50.3457C0.431825 50.2103 0.48258 50.0749 0.55024 49.9396C0.600985 49.838 0.66862 49.7365 0.73628 49.635C0.905431 49.3981 1.0746 49.1781 1.22683 48.9243C1.32832 48.7551 1.41288 48.5859 1.53129 48.4337C1.7681 48.0783 1.90342 47.6722 2.00491 47.2492C2.12331 46.7416 2.25864 46.2171 2.3263 45.6926C2.37704 45.2188 2.39397 44.745 2.49546 44.2713C2.51237 44.1697 2.54618 44.0851 2.58001 43.9836C2.63076 43.8482 2.69843 43.7129 2.74917 43.5775C2.86758 43.3576 3.00291 43.1376 3.13823 42.9176C3.71335 42.0886 4.37304 41.2933 5.04964 40.5319C5.26953 40.2781 5.50635 40.0412 5.74316 39.8212C6.08146 39.5505 6.41972 39.2798 6.75802 39.009C7.11324 38.7045 7.45153 38.3999 7.756 38.0446C8.04356 37.7231 8.29728 37.3509 8.55101 36.9955C8.78782 36.6741 9.00772 36.3526 9.24453 36.0311C9.39676 35.8111 9.54903 35.6081 9.70127 35.3881C9.81967 35.202 9.92117 34.9989 10.0227 34.7959C10.2256 34.3898 10.4117 33.9668 10.5301 33.5269C10.8176 32.5455 10.9361 31.5472 10.9192 30.532C10.9192 30.0075 10.8853 29.466 10.8345 28.9415C10.7838 28.4339 10.7161 27.9263 10.5808 27.4525C10.3609 26.6234 9.93806 25.862 9.63359 25.0667C9.63359 25.0329 9.6167 25.016 9.59978 24.9821C9.59978 24.9483 9.59978 24.9145 9.59978 24.8806C9.59978 24.4745 9.61666 24.0515 9.61666 23.6454C9.61666 23.2563 9.61668 22.8502 9.58285 22.461C9.54902 22.0211 9.5152 21.5811 9.43062 21.1412C9.36296 20.769 9.26145 20.4136 9.14304 20.0583C8.99081 19.6353 8.83858 19.1954 8.61868 18.8062C8.4157 18.434 8.19583 18.0617 7.95902 17.6895C7.4854 16.945 6.87646 16.2851 6.36901 15.5575C6.23369 15.3545 6.11525 15.1345 6.01376 14.9146C5.86152 14.61 5.72622 14.3054 5.60781 14.0009C5.55707 13.8655 5.52322 13.7301 5.48939 13.5778C5.45556 13.4086 5.43869 13.2395 5.42177 13.0703C5.40486 12.5288 5.47248 11.9873 5.43865 11.4628C5.40482 10.8875 5.23566 10.2276 4.79587 9.82154C4.52523 9.58465 4.22076 9.41547 3.89938 9.22934C3.74714 9.12782 3.57803 9.04321 3.40888 8.97552C3.30739 8.94168 3.20586 8.90786 3.10437 8.8571C3.0198 8.78941 2.91835 8.72173 2.83378 8.63712C2.78303 8.58636 2.73224 8.53561 2.6815 8.48485C2.39394 8.14644 2.14022 7.77419 1.83575 7.41886C1.53128 7.08046 1.20993 6.79282 0.871629 6.50518C0.837799 6.42058 0.803957 6.3529 0.753212 6.26829C0.871617 6.08217 0.990008 5.89605 1.10841 5.69301C1.27756 5.40537 1.42981 5.10079 1.59896 4.81315C1.78503 4.49166 1.988 4.17017 2.17407 3.83177C2.42779 3.39184 2.66462 2.95192 2.93526 2.54583C3.07058 2.34279 3.2059 2.13974 3.35814 1.95361C3.40888 1.90285 3.45962 1.8521 3.51037 1.80134C3.62877 1.80134 3.76409 1.80134 3.8825 1.80134C4.08548 1.80134 4.28843 1.80134 4.49142 1.80134C5.11727 1.80134 5.77696 1.80133 6.40282 1.71673C6.75803 1.66597 7.09633 1.58136 7.45154 1.54752C7.7391 1.5306 8.00974 1.49677 8.29729 1.47985C8.82166 1.42909 9.36296 1.37833 9.90424 1.32757C10.2087 1.31065 10.5301 1.32756 10.8345 1.29372C11.1559 1.29372 11.4773 1.24296 11.7987 1.20912C12.0694 1.17528 12.34 1.15837 12.6107 1.14145C12.8475 1.10761 13.1012 1.09067 13.3549 1.07375C13.7778 1.03991 14.2007 1.02301 14.6066 0.989171C14.928 0.955331 15.2494 0.887647 15.5877 0.853806C15.5538 0.853806 15.52 0.853806 15.4862 0.853806C15.7568 0.836886 16.0275 0.78612 16.315 0.769199C16.2812 0.769199 16.2643 0.769199 16.2304 0.769199C16.3658 0.769199 16.5011 0.752272 16.6364 0.735352C16.7717 0.735352 16.8901 0.735352 17.0254 0.735352C17.0593 0.735352 17.0931 0.735352 17.1439 0.735352C17.2284 0.853794 17.3299 0.972247 17.4314 1.09069C17.6005 1.29373 17.7697 1.49678 17.9558 1.69982C18.0235 1.78442 18.0911 1.86901 18.1588 1.95361C18.2264 2.07206 18.311 2.19049 18.3956 2.29202C18.5985 2.5289 18.8354 2.6812 19.1398 2.78272C19.3766 2.86732 19.5965 2.93498 19.8333 3.00266C20.1886 3.10419 20.5607 3.17188 20.9328 3.22264C21.4233 3.29032 21.897 3.34107 22.3875 3.37491C22.895 3.40875 23.3686 3.54412 23.8761 3.59488C24.4004 3.64565 24.9078 3.69642 25.4322 3.7641C26.1765 3.86562 26.9207 3.89946 27.665 3.95022C27.7496 3.95022 27.8172 3.95022 27.9018 3.95022C28.0202 3.95022 28.1386 3.95021 28.257 3.96713C28.7307 4.33938 29.255 4.66087 29.7455 4.99927C30.2022 5.30384 30.642 5.60841 31.0818 5.92989C31.5216 6.2683 31.9445 6.62361 32.3843 6.94509C32.7395 7.1989 33.0947 7.43579 33.4668 7.63883C33.8559 7.84188 34.228 8.04493 34.5832 8.28181C34.8539 8.46794 35.1076 8.67096 35.3613 8.87401C35.4628 8.97553 35.5474 9.07706 35.6489 9.17859C35.8011 9.33087 35.9703 9.48314 36.1394 9.6185C36.5454 9.93999 36.9513 10.2276 37.3742 10.5153C37.6618 10.7014 37.9493 10.9044 38.2369 11.0906C38.4906 11.2598 38.7274 11.429 38.9811 11.5982C39.0488 11.6828 39.1165 11.7843 39.2011 11.8689C39.3195 11.9873 39.4379 12.1058 39.5732 12.2073C40.0468 12.5965 40.6726 12.7149 41.2478 12.7995C41.8736 12.901 42.4825 12.9518 43.1253 12.8841C43.7004 12.8165 44.2755 12.6472 44.8337 12.5288C44.969 12.5119 45.0875 12.495 45.2228 12.478C45.2566 12.478 45.3073 12.478 45.3412 12.478C45.3581 12.478 45.375 12.478 45.3919 12.478C45.4596 12.478 45.5103 12.5119 45.578 12.5288C45.781 12.5965 46.0009 12.6811 46.2038 12.7657C46.4576 12.8841 46.7282 13.0026 46.9819 13.1379C47.3033 13.3071 47.6078 13.4763 47.9292 13.6455C48.3689 13.8655 48.8257 14.0855 49.2824 14.2885C49.6545 14.4577 50.0266 14.6269 50.4157 14.7623C50.7032 14.8638 51.0077 14.9484 51.3122 15.0499C51.5151 15.1176 51.7012 15.2022 51.9211 15.253C52.2087 15.3206 52.4962 15.3376 52.7838 15.3545C52.8853 15.3545 52.9868 15.3545 53.1052 15.3545C53.2236 15.3545 53.325 15.3545 53.4265 15.3376C53.731 15.2868 54.0186 15.1515 54.2892 14.9992C54.7967 14.6946 55.1857 14.2547 55.4902 13.7471C55.7946 13.2225 55.9807 12.6472 56.2514 12.1058C56.3867 11.8351 56.5389 11.5643 56.708 11.2936C56.8434 11.1075 56.9787 10.9383 57.114 10.7691C57.2663 10.583 57.4354 10.4138 57.6215 10.2615C57.8414 10.0584 58.0444 9.85539 58.2643 9.66926C58.2812 9.65234 58.315 9.63543 58.3319 9.60159C58.4334 9.55083 58.518 9.48314 58.6195 9.43238C58.7209 9.38162 58.8224 9.33085 58.9408 9.29701C59.11 9.24625 59.2961 9.21241 59.4821 9.16165C59.6851 9.11089 59.8881 9.04321 60.0742 8.95861C60.311 8.85709 60.5309 8.75558 60.7508 8.65406C61.0214 8.5187 61.2582 8.34948 61.5288 8.21412C61.8164 8.07875 62.1039 7.96033 62.3746 7.80805C62.5776 7.6896 62.7975 7.58806 63.0004 7.46962C63.3556 7.26658 63.6601 6.99586 63.9815 6.74206C64.286 6.48826 64.6074 6.25137 64.9288 6.03141C64.9964 5.98065 65.081 5.92989 65.1487 5.89605C65.1656 5.89605 65.1825 5.89605 65.1994 5.87913C65.2671 5.86221 65.3516 5.8453 65.4362 5.82838C65.5546 5.81146 65.673 5.79451 65.7915 5.77759C65.8253 5.77759 65.8591 5.77759 65.8929 5.77759C65.9099 5.77759 65.9436 5.77761 65.9606 5.79453C66.079 5.84529 66.1805 5.89604 66.2989 5.9468C66.3835 5.99756 66.485 6.04832 66.5695 6.09908C66.6541 6.14984 66.7217 6.21752 66.8063 6.2852C66.8909 6.36981 66.9755 6.45442 67.0601 6.53902C67.0601 6.55594 67.0939 6.57286 67.1108 6.58978C67.1447 6.65746 67.1954 6.72514 67.2292 6.79282C67.3814 7.1143 67.4998 7.46963 67.7197 7.74035C67.9396 8.01108 68.2103 8.18029 68.5147 8.33257C68.7685 8.45101 69.0222 8.53561 69.2928 8.56945C69.7326 8.63714 70.2062 8.63713 70.6629 8.62021C71.052 8.62021 71.4241 8.53561 71.8132 8.48485C72.05 8.45101 72.3037 8.43409 72.5405 8.38333C72.8619 8.33257 73.2002 8.2818 73.5216 8.26488C73.5892 8.26488 73.64 8.26488 73.7077 8.26488C73.7922 8.26488 73.8599 8.2818 73.9444 8.29872C74.0459 8.31564 74.1475 8.34949 74.249 8.38333C74.3843 8.43409 74.5027 8.48485 74.6211 8.53561L74.7056 8.451Z" fill="#1E3D4C"/>
</svg>
