<svg width="29" height="84" viewBox="0 0 29 84" fill="none" xmlns="http://www.w3.org/2000/svg">
<path d="M28.131 62.3829C28.1817 63.2797 28.2155 64.1765 28.131 65.0732C28.131 65.0732 28.131 65.124 28.131 65.1578C28.0126 66.4776 27.8434 67.7974 27.5897 69.1003C27.5389 69.3033 27.4882 69.5063 27.4374 69.7094C27.4205 69.7601 27.4036 69.794 27.3867 69.8448C27.3867 69.8786 27.3529 69.8955 27.336 69.9124C27.3021 69.9463 27.2683 69.997 27.2345 70.0309C27.1499 70.1324 27.0484 70.217 26.9469 70.3185C26.5071 70.6908 26.0673 71.063 25.5937 71.4014C25.2892 71.5875 24.9848 71.7568 24.6803 71.9598C24.342 72.1798 24.0206 72.4166 23.75 72.7212C23.2256 73.2965 22.8366 73.9902 22.549 74.7178C22.3291 75.2931 22.0923 75.953 22.1262 76.5959C22.1431 76.8836 22.2107 77.1712 22.3291 77.442C22.4306 77.645 22.5321 77.848 22.6505 78.0511C22.6843 78.1187 22.7012 78.1865 22.7351 78.2542C22.7689 78.3388 22.7858 78.4234 22.8027 78.5249C22.8366 78.6772 22.8535 78.8464 22.8535 78.9987C22.8535 79.2355 22.8704 79.4724 22.8535 79.7093C22.8197 80.1323 22.7182 80.5553 22.6336 80.9614C22.549 81.3674 22.4306 81.7566 22.3122 82.1458C22.2107 82.4673 22.143 82.7888 22.0416 83.1103C22.0246 83.178 21.9908 83.2287 21.9739 83.2964C21.9739 83.2964 21.9739 83.3133 21.957 83.3302C21.8893 83.3302 21.8217 83.3302 21.754 83.3471C21.6187 83.3471 21.5003 83.3471 21.365 83.3471C21.2973 83.2456 21.2296 83.1441 21.162 83.0426C21.0605 82.8903 20.959 82.7211 20.8575 82.5688C20.8237 82.5011 20.7898 82.4335 20.7729 82.3658C20.7729 82.3319 20.756 82.2812 20.7391 82.2473C20.6884 81.9766 20.6714 81.6889 20.6545 81.4013C20.6038 80.6737 20.5361 79.9462 20.4177 79.2355C20.367 78.8971 20.3162 78.5249 20.2148 78.1865C20.1133 77.8481 19.9779 77.5604 19.7919 77.2559C19.4367 76.6298 19.0983 75.9868 18.5571 75.4792C18.0158 74.9885 17.3899 74.5824 16.781 74.1764C16.5611 74.0241 16.3412 73.8549 16.1382 73.6857C15.8845 73.4488 15.6308 73.195 15.394 72.9412C15.2417 72.772 15.1064 72.6028 14.9711 72.4166C14.8527 72.2305 14.7512 72.0613 14.6497 71.8583C14.5651 71.6722 14.4805 71.486 14.4129 71.2999C14.3959 71.2153 14.3622 71.1476 14.3452 71.063C14.3114 70.8431 14.2945 70.6231 14.2776 70.4031C14.2776 70.1662 14.2607 69.9294 14.2776 69.6925C14.2776 69.6756 14.2776 69.6417 14.2776 69.6248C14.2945 69.5571 14.3114 69.4894 14.3452 69.4218C14.4298 69.1849 14.5313 68.9649 14.6328 68.7449C14.8019 68.4234 15.0049 68.1189 15.2079 67.8143C15.4278 67.4759 15.6139 67.1206 15.8168 66.7822C16.0029 66.4438 16.189 66.1054 16.3412 65.767C16.5104 65.3947 16.6287 65.0225 16.7471 64.6333C16.8825 64.2103 17.0178 63.7704 17.1362 63.3304C17.2546 62.8736 17.373 62.4168 17.4576 61.9599C17.5422 61.4523 17.5591 60.9447 17.576 60.4371C17.576 60.0818 17.576 59.7264 17.576 59.388C17.5422 58.7281 17.4914 58.0344 17.3222 57.3745C17.2038 56.9515 17.0178 56.5285 16.8486 56.1224C16.7471 55.8855 16.6288 55.6317 16.4596 55.4118C16.2736 55.1918 16.0705 54.9887 15.8507 54.8026C15.4616 54.4642 15.0218 54.1596 14.5482 53.9566C14.1253 53.7705 13.6687 53.6351 13.195 53.6013C12.8736 53.5844 12.5353 53.5675 12.2139 53.6182C11.7911 53.6859 11.3851 53.8381 10.9622 53.9397C10.5901 54.0073 10.218 54.075 9.84584 54.1596C9.54137 54.2273 9.21996 54.2781 8.91549 54.3119C8.83091 54.3119 8.76328 54.3119 8.6787 54.3119C8.61104 54.3119 8.54339 54.295 8.47573 54.2781C8.37424 54.2612 8.27276 54.2273 8.17127 54.1935C8.10361 54.1597 8.03591 54.1427 7.96825 54.1089C7.95133 54.1089 7.91754 54.075 7.90063 54.075C7.88371 54.075 7.8668 54.0412 7.84988 54.0412C7.79914 53.9905 7.76528 53.9397 7.71453 53.9058C7.51155 53.652 7.30856 53.3813 7.1225 53.1106C6.95335 52.8737 6.76729 52.6368 6.59814 52.4C6.29367 51.9431 5.9892 51.4693 5.75239 50.9955C5.66781 50.8094 5.58327 50.6233 5.46486 50.4541C5.34646 50.268 5.21112 50.0988 5.0758 49.9296C4.87282 49.7096 4.66983 49.4896 4.43302 49.3035C4.2977 49.1851 4.1455 49.0835 3.99326 48.982C3.8072 48.8467 3.63805 48.6944 3.4689 48.559C3.0122 48.2037 2.53853 47.8822 2.09874 47.51C1.89576 47.3238 1.72663 47.1377 1.54057 46.9347C1.38833 46.7655 1.25301 46.5963 1.11769 46.4102C1.08386 46.3594 1.05003 46.3086 1.0162 46.2409C0.999289 46.1902 0.965445 46.1225 0.94853 46.0717C0.9147 45.9702 0.897805 45.8687 0.863975 45.7502C0.84706 45.6318 0.830147 45.4964 0.813232 45.378C0.813232 45.2934 0.813232 45.2088 0.813232 45.1411C0.813232 45.0227 0.84706 44.9043 0.863975 44.7858C0.897805 44.6335 0.948528 44.4643 0.999273 44.3121C1.16842 43.8383 1.38835 43.3814 1.5575 42.8907C1.76048 42.3323 1.87888 41.7402 1.92963 41.131C1.98037 40.5896 1.99729 40.065 1.98037 39.5236C1.96346 39.0329 1.89577 38.5422 1.84502 38.0515C1.84502 37.8992 1.84502 37.747 1.84502 37.5947C1.84502 37.4932 1.86197 37.3916 1.87889 37.2901C1.91272 37.1378 1.96342 36.9856 1.99725 36.8502C2.08183 36.6133 2.16643 36.3933 2.28483 36.1733C2.33558 36.0718 2.40321 35.9534 2.47087 35.8519C2.53853 35.7673 2.60623 35.6827 2.67389 35.5981C2.7923 35.4796 2.91069 35.3612 3.02909 35.2597C3.19824 35.1243 3.35046 34.9889 3.53652 34.8705C3.80716 34.7013 4.09475 34.549 4.3654 34.3967C4.7037 34.2106 5.02504 33.9906 5.32951 33.7538C5.63398 33.5169 5.9554 33.2462 6.20913 32.9416C6.41211 32.6878 6.56431 32.4002 6.64888 32.0956C6.83495 31.4865 6.81803 30.8435 6.64888 30.2344C6.47973 29.5914 6.2937 28.9484 6.15838 28.2885C6.07381 27.8317 6.02304 27.3748 5.92155 26.918C5.82006 26.3935 5.63401 25.8858 5.5156 25.3613C5.43103 24.9552 5.3972 24.5491 5.36337 24.143C5.32954 23.3985 5.31263 22.6372 5.36337 21.8927C5.3972 21.5881 5.43101 21.2835 5.49867 20.979C5.61708 20.4037 5.7524 19.8453 5.76932 19.2531C5.76932 18.9654 5.75241 18.6609 5.66783 18.3732C5.58326 18.1025 5.48174 17.8318 5.38025 17.578C5.34642 17.4934 5.32955 17.3918 5.31263 17.3072C5.31263 17.2226 5.27877 17.1211 5.27877 17.0365V16.9689C5.27877 16.9689 5.27877 16.9519 5.27877 16.935C5.27877 16.935 5.27877 16.9181 5.27877 16.9012C5.27877 16.8673 5.29572 16.8504 5.31263 16.8166C5.31263 16.7827 5.34646 16.7658 5.36337 16.7319C5.41412 16.6812 5.44793 16.6135 5.49867 16.5627C5.56633 16.4951 5.634 16.4105 5.71858 16.3428C5.88773 16.2074 6.05687 16.0721 6.24294 15.9536C6.91954 15.5137 7.66379 15.0907 8.08667 14.3801C8.37422 13.8894 8.62794 13.3141 8.66177 12.7218C8.71252 12.1973 8.56028 11.6559 8.28964 11.199C8.10357 10.8945 7.88369 10.6407 7.66379 10.353C7.49464 10.133 7.32551 9.9131 7.15636 9.67621C6.91955 9.32089 6.71656 8.96553 6.51358 8.59329C6.44592 8.44101 6.37827 8.28873 6.31061 8.11952C6.27678 8.018 6.25984 7.93338 6.22601 7.83185C6.19218 7.62881 6.1753 7.40886 6.15838 7.20581C6.15838 7.01969 6.15838 6.8336 6.15838 6.6644C6.1753 6.4952 6.20911 6.30903 6.24294 6.13983C6.29368 5.88602 6.36135 5.61535 6.4121 5.34462C6.46284 5.04006 6.49667 4.73548 6.51358 4.43091C6.54741 4.0079 6.56431 3.56794 6.54739 3.12802C6.54739 2.90805 6.5474 2.68811 6.49665 2.46815C6.69963 2.48507 6.90264 2.50199 7.10562 2.51891C7.66381 2.55275 8.22199 2.5189 8.78019 2.40046C9.27072 2.29893 9.71051 2.0959 10.0996 1.77441C10.3871 1.53753 10.6409 1.28372 10.9115 1.02992C10.9115 1.02992 10.9284 1.01301 10.9453 0.996094C10.9453 0.996094 10.9791 0.996094 10.9961 0.996094H11.0468C11.0468 0.996094 11.1821 0.996075 11.2498 1.02992C11.4527 1.08068 11.6557 1.13145 11.8418 1.19913C12.0279 1.26681 12.197 1.3345 12.3662 1.4191C12.5522 1.52062 12.7383 1.62215 12.9244 1.74059C13.2796 1.97747 13.601 2.24819 13.9224 2.51891C14.3791 2.925 14.8019 3.33108 15.2248 3.78793C15.4616 4.05866 15.6646 4.32936 15.8845 4.61701C16.0367 4.85389 16.1721 5.09082 16.3074 5.34462C16.4427 5.63227 16.5611 5.93683 16.6795 6.24139C16.8148 6.6644 16.9163 7.08737 17.0178 7.5273C17.1193 8.06875 17.1869 8.62714 17.2884 9.18551C17.3899 9.79464 17.5083 10.4038 17.5591 11.0298C17.5929 11.6728 17.5929 12.3158 17.6944 12.9418C17.7451 13.2971 17.8297 13.6525 17.8635 14.0078C17.8635 14.0416 17.8635 14.0755 17.8635 14.1093C17.8635 14.177 17.8466 14.2616 17.8297 14.3293C17.7113 14.8538 17.5929 15.3614 17.5591 15.8859C17.5422 16.1397 17.5253 16.4104 17.5253 16.6642C17.5253 16.9011 17.5253 17.1211 17.5591 17.358C17.6606 17.8825 17.9481 18.3224 18.2187 18.7793C18.4556 19.1685 18.6585 19.5576 18.8615 19.9637C19.0814 20.4037 19.2336 20.8774 19.4366 21.3343C19.3013 21.3512 19.166 21.3851 19.0137 21.4189C18.7262 21.4866 18.4386 21.5712 18.168 21.7065C17.9312 21.825 17.6944 21.9434 17.5083 22.1465C17.17 22.5187 16.8656 22.9586 16.6964 23.4324C16.5611 23.7877 16.4258 24.143 16.2905 24.5153C16.189 24.8029 16.1044 25.0906 16.0029 25.3782C15.8845 25.6828 15.7661 25.9873 15.6477 26.2919C15.5124 26.6303 15.4109 26.9857 15.2925 27.341C15.2925 27.3918 15.2587 27.4256 15.2417 27.4763C15.1402 27.7471 15.0387 28.0178 14.9542 28.2885C14.8696 28.5762 14.8019 28.8807 14.7512 29.1853C14.6497 29.7437 14.5651 30.302 14.4637 30.8604C14.3622 31.3849 14.3114 31.9094 14.2776 32.434C14.2607 32.7555 14.2268 33.0769 14.2268 33.3815C14.2268 33.6861 14.2606 33.9907 14.3114 34.2952C14.4129 34.8028 14.5313 35.3104 14.6666 35.818C14.8189 36.3764 15.0218 36.9009 15.1571 37.4593C15.2079 37.7639 15.2417 38.0684 15.2755 38.373C15.2925 38.7791 15.3094 39.1852 15.3432 39.5913C15.3771 39.9804 15.4616 40.3527 15.5631 40.7249C15.7661 41.4356 16.0536 42.1631 16.4258 42.7892C16.7641 43.3645 17.1869 43.889 17.6944 44.3121C17.9819 44.5489 18.3202 44.7351 18.6585 44.8873C18.8615 44.9889 19.0476 45.1073 19.2337 45.2426C19.4535 45.378 19.6565 45.5303 19.8764 45.6657C19.9948 45.7503 20.1302 45.8518 20.2486 45.9533C20.4177 46.1056 20.57 46.2748 20.7391 46.444C20.9421 46.6809 21.1282 46.9178 21.3311 47.1546C21.5341 47.3915 21.7371 47.6115 21.9231 47.8484C22.2783 48.3052 22.6336 48.7621 22.9888 49.2189C23.3609 49.6927 23.7161 50.2003 24.0883 50.674C24.4435 51.114 24.7987 51.5709 25.1201 52.0277C25.6106 52.7722 26.1181 53.5166 26.541 54.3119C26.7608 54.7687 26.9469 55.2425 27.1161 55.7163C27.4036 56.5792 27.725 57.4422 27.9111 58.3221C27.9956 58.7451 28.0295 59.1511 28.0633 59.5741C28.0971 60.0987 28.0971 60.6232 28.114 61.1477C28.114 61.6046 28.1648 62.0445 28.1817 62.5014L28.131 62.3829Z" fill="#A79D4B"/>
</svg>
