<svg width="19" height="19" viewBox="0 0 19 19" fill="none" xmlns="http://www.w3.org/2000/svg">
<path d="M18.5639 10.5285C18.5639 10.8499 18.5639 11.1714 18.5639 11.4929C18.5301 11.899 18.4624 12.322 18.3779 12.7281C18.344 12.8465 18.3271 12.965 18.2933 13.0665C18.2764 13.1342 18.2425 13.185 18.2256 13.2526C18.1918 13.3034 18.1749 13.3372 18.1411 13.388C18.1072 13.4387 18.0565 13.4895 18.0226 13.5403C18.0226 13.5403 17.955 13.591 17.9212 13.6249C17.6167 13.7772 17.3122 13.8956 17.0077 14.031C16.7709 14.1325 16.5172 14.2509 16.3142 14.4201C16.1282 14.5724 15.9759 14.7247 15.8068 14.8939C15.8068 14.8939 15.7899 14.8939 15.773 14.8939C15.5193 14.877 15.2486 14.8431 14.9948 14.7924C14.9948 14.7924 15.0118 14.7924 15.0287 14.7924C15.0287 14.7924 15.0118 14.7924 14.9948 14.7924C14.9948 14.7924 14.978 14.7924 14.961 14.7924C14.7581 14.7585 14.5551 14.7247 14.3521 14.6739C14.2168 14.6401 14.0646 14.6063 13.9292 14.5724C13.8447 14.5555 13.7432 14.5386 13.6586 14.5217C13.5402 14.4878 13.4218 14.454 13.3033 14.4201C13.1511 14.3863 12.9989 14.3524 12.8467 14.3186C12.8128 14.3186 12.7959 14.3186 12.7621 14.3017C12.7452 14.3017 12.7113 14.2848 12.6944 14.2678C12.5422 14.1832 12.4069 14.0986 12.2377 14.031C11.984 13.9463 11.7303 13.8956 11.4765 13.8956C11.0537 13.8956 10.6139 13.9633 10.2249 14.0986C9.95421 14.1832 9.68357 14.3017 9.42985 14.437C9.19304 14.5724 8.92237 14.7416 8.77014 14.9616C8.58407 15.2323 8.48261 15.503 8.38112 15.8245C8.27963 16.1629 8.17814 16.5182 8.05973 16.8566C8.00899 16.992 7.95825 17.1104 7.90751 17.2289C7.90751 17.2458 7.87364 17.2797 7.87364 17.2966C7.87364 17.3135 7.83981 17.3304 7.8229 17.3473C7.78907 17.3812 7.73831 17.4319 7.70448 17.4658C7.56916 17.5673 7.45077 17.6688 7.29854 17.7703C7.21396 17.8211 7.11245 17.8888 7.01096 17.9395C6.92638 17.9734 6.84186 18.0241 6.74037 18.058C6.65579 18.0918 6.57117 18.1087 6.4866 18.1257C6.40202 18.1257 6.31749 18.1595 6.216 18.1595C6.11451 18.1595 6.02992 18.1595 5.92843 18.1595C5.86077 18.1595 5.7931 18.1595 5.70852 18.1257C5.67469 18.1257 5.64088 18.1257 5.62397 18.0918C5.60705 18.0918 5.59014 18.0918 5.57323 18.0749C5.57323 18.0749 5.55628 18.0749 5.53936 18.058C5.50553 18.0411 5.47171 18.0072 5.43788 17.9903C5.38713 17.9395 5.31946 17.8718 5.26872 17.8042C5.15031 17.6519 5.0319 17.4996 4.89658 17.3642C4.62594 17.0428 4.3046 16.7044 3.88172 16.6198C3.71257 16.5859 3.52651 16.5521 3.35736 16.5521C3.22204 16.5521 3.08669 16.5521 2.95137 16.6028C2.78222 16.6367 2.62998 16.7043 2.47775 16.772C2.13945 16.9243 1.81805 17.1443 1.51358 17.3812C1.32752 17.5334 1.14147 17.6857 0.955408 17.855C0.955408 17.838 0.955392 17.8211 0.938477 17.7873C0.938477 17.7703 0.938477 17.7534 0.938477 17.7365V17.7027C0.955392 17.5334 0.989253 17.3473 1.02308 17.1781C1.07383 16.9243 1.14148 16.6536 1.22605 16.3998C1.34446 16.0952 1.47976 15.8076 1.632 15.5199C1.73349 15.3169 1.835 15.1138 1.97032 14.9277C2.13947 14.6908 2.30863 14.437 2.46087 14.1832C2.66385 13.8448 2.84988 13.4895 3.00211 13.1342C3.17126 12.7619 3.32351 12.3897 3.44192 12.0005C3.59415 11.5098 3.72949 11.0022 3.88172 10.4946C3.98321 10.1901 4.1016 9.88549 4.23692 9.59784C4.28767 9.51324 4.32148 9.42864 4.37222 9.36096C4.54137 9.141 4.71052 8.93794 4.89658 8.73489C5.2518 8.3288 5.64087 7.95657 5.97917 7.53357C6.31747 7.12748 6.60504 6.68755 6.94334 6.26454C7.14632 6.01074 7.33236 5.74001 7.50151 5.46929C7.58608 5.33393 7.67065 5.19856 7.75522 5.04628C7.78905 5.0632 7.82288 5.09703 7.85671 5.11395C8.43182 5.52004 8.95622 6.02767 9.63282 6.24763C9.80197 6.29839 9.9711 6.33221 10.1402 6.33221C10.6308 6.33221 11.1383 6.11225 11.4935 5.77384C11.8825 5.41851 12.17 4.96167 12.4069 4.50482C12.6098 4.08181 12.779 3.62498 12.982 3.20198C13.1173 2.93125 13.2188 2.6436 13.3541 2.37287C13.3541 2.33903 13.388 2.32211 13.4049 2.28827C13.4049 2.28827 13.4048 2.27136 13.4218 2.25444C13.4556 2.2206 13.4725 2.20368 13.5064 2.16984C13.6586 2.03447 13.8278 1.88219 13.98 1.74683C14.0307 1.71299 14.0645 1.67915 14.1153 1.64531C14.1491 1.62839 14.183 1.59454 14.2337 1.57762C14.4536 1.47609 14.6735 1.35765 14.8934 1.25613C14.8595 1.27305 14.8088 1.28997 14.775 1.30689C14.8596 1.27304 14.9441 1.2223 15.0287 1.18846C15.2994 1.10386 15.5869 1.01926 15.8575 0.934663C16.0267 0.883902 16.2128 0.816201 16.3988 0.782361C16.6356 0.7316 16.8555 0.714674 17.0923 0.697754C17.0923 0.866957 17.0754 1.01925 17.0754 1.18846C17.0754 1.6453 17.0754 2.11906 17.0416 2.57591C17.0247 3.03275 16.9908 3.47269 16.9739 3.92954C16.9739 4.43714 16.957 4.94475 16.9739 5.43544C16.9739 5.90921 17.0078 6.39991 17.0923 6.87368C17.1938 7.34744 17.346 7.80428 17.5828 8.21037C17.752 8.49801 17.9719 8.76874 18.158 9.05638C18.2087 9.12406 18.2426 9.20867 18.2933 9.27635C18.3102 9.32711 18.3271 9.37788 18.344 9.41172C18.3779 9.53016 18.4117 9.6486 18.4455 9.78397C18.4794 10.0039 18.5132 10.2408 18.5301 10.4608L18.5639 10.5285Z" fill="#1E3D4C"/>
</svg>
