<svg width="105" height="118" viewBox="0 0 105 118" fill="none" xmlns="http://www.w3.org/2000/svg">
<path d="M104.33 103.439C104.33 103.439 104.211 103.541 104.161 103.591C104.195 103.558 104.228 103.541 104.262 103.507C103.992 103.744 103.755 103.998 103.484 104.234C103.197 104.471 102.892 104.674 102.588 104.894C102.08 105.267 101.691 105.757 101.218 106.18C100.913 106.434 100.592 106.688 100.287 106.959C100.321 106.925 100.355 106.908 100.389 106.874C100.017 107.196 99.6444 107.5 99.2554 107.805C99.0186 107.991 98.7987 108.194 98.5618 108.397C98.2912 108.634 98.0205 108.837 97.7499 109.057C97.5808 109.192 97.4285 109.327 97.2763 109.48C97.1579 109.598 97.0564 109.734 96.938 109.835C96.7858 109.954 96.6335 110.055 96.4813 110.157C96.346 110.258 96.2106 110.377 96.0584 110.478C95.8047 110.647 95.534 110.816 95.2634 110.969C95.0435 111.104 94.8405 111.239 94.6206 111.358C94.4176 111.459 94.2147 111.544 94.0117 111.646C93.9102 111.696 93.8087 111.747 93.7072 111.815C93.4874 111.916 93.2844 112.001 93.0645 112.119C92.8784 112.204 92.7093 112.322 92.5401 112.407C92.371 112.492 92.1849 112.559 92.0326 112.661C91.8635 112.779 91.7113 112.898 91.5421 113.016C91.373 113.135 91.2038 113.236 91.0346 113.355C90.9839 113.388 90.9332 113.422 90.8824 113.456C90.6456 113.49 90.3919 113.507 90.1551 113.524C90.1043 113.524 90.0367 113.524 89.9859 113.524C89.8506 113.524 89.7153 113.49 89.58 113.473C89.377 113.473 89.1909 113.456 88.9879 113.439C88.8695 113.439 88.7511 113.405 88.6327 113.388C88.379 113.338 88.1253 113.253 87.8885 113.168C87.7193 113.101 87.5333 113.033 87.3641 112.965C87.1273 112.864 86.9074 112.762 86.6875 112.661C86.0109 112.373 85.2836 112.238 84.5562 112.238C83.9473 112.238 83.3383 112.289 82.7294 112.373C82.4418 112.424 82.1374 112.475 81.8498 112.559C81.5453 112.661 81.2747 112.796 81.0041 112.965C80.6488 113.202 80.3275 113.49 80.0061 113.778C79.7354 114.014 79.4817 114.234 79.2111 114.454C78.9573 114.657 78.7205 114.843 78.5006 115.063C78.0439 115.52 77.6887 116.079 77.2827 116.569C77.232 116.62 77.1813 116.688 77.1136 116.739C77.046 116.789 76.9783 116.84 76.9107 116.891C76.8768 116.891 76.8599 116.925 76.826 116.942C76.7753 116.959 76.7415 116.975 76.6908 116.992C76.3186 117.111 75.9465 117.229 75.5744 117.297C75.4052 117.331 75.236 117.348 75.0838 117.365C74.8639 117.365 74.6271 117.365 74.4072 117.365C74.0013 117.331 73.6122 117.229 73.2063 117.195C72.868 117.178 72.5296 117.195 72.2082 117.229C71.8023 117.263 71.3963 117.348 70.9735 117.382C70.7197 117.415 70.466 117.432 70.2123 117.449C69.9416 117.483 69.671 117.517 69.4004 117.551C69.2312 117.551 69.0452 117.551 68.876 117.551C68.6054 117.517 68.3347 117.483 68.0641 117.449C67.8273 117.398 67.5735 117.331 67.3536 117.246C67.0661 117.145 66.7616 117.026 66.4571 116.925C66.1865 116.84 65.899 116.755 65.6283 116.654C65.4761 116.586 65.3239 116.519 65.1716 116.451C64.5796 116.129 64.0214 115.757 63.4463 115.385C63.0572 115.131 62.6682 114.844 62.2453 114.674C61.9408 114.556 61.6195 114.505 61.2981 114.505C61.1289 114.505 60.9429 114.505 60.7737 114.556C60.4862 114.607 60.2155 114.708 59.928 114.793C59.7757 114.843 59.6235 114.894 59.4712 114.945C59.3867 114.979 59.3021 115.013 59.2175 115.047C58.913 115.047 58.6086 115.013 58.3041 114.996C57.8982 114.996 57.4753 114.996 57.0693 114.996C56.6465 114.996 56.2066 114.996 55.7838 115.013C55.4116 115.013 55.0395 115.063 54.6674 115.08C54.3122 115.097 53.957 115.097 53.6187 115.08C53.5848 114.996 53.551 114.894 53.5002 114.81C53.4157 114.607 53.3142 114.42 53.2296 114.217C53.0436 113.811 52.9082 113.388 52.7052 112.982C52.5022 112.576 52.2993 112.187 52.0794 111.798C51.9102 111.51 51.7242 111.239 51.5719 110.952C51.555 110.918 51.5381 110.867 51.5212 110.833V110.8C51.5212 110.8 51.5212 110.783 51.5212 110.766C51.5212 110.495 51.5212 110.207 51.5381 109.937C51.5551 109.683 51.5889 109.429 51.6396 109.192C51.6904 108.955 51.758 108.701 51.8087 108.465C51.8595 108.177 51.8764 107.872 51.8426 107.585C51.7918 107.026 51.6565 106.485 51.6058 105.926C51.5719 105.216 51.5719 104.488 51.4535 103.778C51.3859 103.372 51.3013 102.949 51.2506 102.542C51.1998 102.204 51.1491 101.866 51.0983 101.527C50.9799 100.783 50.8277 100.055 50.574 99.3445C50.3202 98.6508 50.0158 97.9909 49.6098 97.3818C49.2038 96.7557 48.6964 96.1804 48.172 95.6559C47.6138 95.0975 47.0218 94.573 46.379 94.0992C45.7532 93.6424 45.0766 93.304 44.3493 93.0502C43.4866 92.7625 42.4209 92.5933 41.6767 93.2363C41.4398 93.4393 41.2199 93.6762 40.9831 93.8962C40.8986 93.9639 40.814 94.0315 40.7294 94.0992C40.6956 94.1161 40.6618 94.15 40.6279 94.1669C40.5941 94.1669 40.5603 94.2007 40.5264 94.2176C40.4419 94.2515 40.3404 94.2684 40.2389 94.2853C40.0866 94.3192 39.9514 94.3361 39.7991 94.353C39.5961 94.353 39.4101 94.353 39.2071 94.353C38.6658 94.3023 38.1245 94.2346 37.6001 94.1331C37.1942 94.0484 36.7882 93.9469 36.3822 93.8623C35.9594 93.7777 35.5365 93.7269 35.1136 93.6423C34.4032 93.4901 33.6759 93.304 32.9654 93.1348C32.5426 93.0332 32.1197 92.8979 31.7137 92.7625C31.2909 92.6271 30.8511 92.4918 30.4282 92.3733C29.4471 92.0857 28.4491 91.798 27.485 91.4766C27.2313 91.375 26.9775 91.2735 26.7238 91.1551C26.5208 91.0366 26.3178 90.9351 26.1148 90.7998C26.0133 90.7152 25.9119 90.6475 25.8104 90.5629C25.4552 90.2414 25.1507 89.8861 24.8124 89.5307C24.4233 89.1246 24.0343 88.7185 23.6622 88.2955C23.0363 87.568 22.3597 86.8912 21.5985 86.2989C20.8712 85.7406 20.0424 85.3345 19.2305 84.9115C18.8583 84.7253 18.4862 84.5223 18.1141 84.3701C17.7927 84.2347 17.4713 84.1332 17.1668 83.9809C17.0822 83.9301 16.9977 83.8963 16.9131 83.8455C16.7947 83.7609 16.6763 83.6594 16.5579 83.5579C16.2196 83.2533 15.8982 82.9487 15.5937 82.6103C15.4922 82.4919 15.3907 82.3565 15.3062 82.2381C15.1539 82.0012 15.0186 81.7812 14.9002 81.5274C14.748 81.2059 14.5957 80.8675 14.4435 80.5291C14.3589 80.343 14.2574 80.1569 14.1728 79.9708C14.1052 79.7508 14.0376 79.5308 13.953 79.3109C13.8346 79.0571 13.6992 78.8371 13.5639 78.5833C13.5132 78.4818 13.4624 78.3633 13.4286 78.2618C13.3102 77.9065 13.2256 77.5512 13.141 77.1958C13.0396 76.8405 12.955 76.4852 12.8366 76.113C12.6167 75.3685 12.346 74.6409 11.9908 73.9472C11.568 73.135 11.162 72.3228 10.6715 71.5614C10.3839 71.1045 10.0963 70.6646 9.80878 70.2247C9.45357 69.7171 9.08143 69.2433 8.69238 68.7526C8.35408 68.3296 8.03271 67.8897 7.69441 67.4667C7.38994 67.0775 7.06855 66.7053 6.74717 66.333C6.42578 65.9608 6.13823 65.5547 5.85068 65.1655C5.5462 64.7425 5.22481 64.3364 4.88651 63.9473C4.46363 63.4566 4.05769 62.932 3.68556 62.3906C3.55024 62.2044 3.43185 62.0014 3.33036 61.7984C3.24578 61.6123 3.16118 61.4261 3.09352 61.24C2.9582 60.8508 2.85672 60.4448 2.73832 60.0387C2.603 59.6326 2.48457 59.2096 2.4 58.7866C2.29851 58.279 2.19703 57.7713 2.14628 57.2637C2.12937 56.8576 2.1463 56.4347 2.16322 56.0286C2.18013 55.7917 2.21394 55.5717 2.24777 55.3518C2.33234 54.9626 2.4 54.5565 2.45074 54.1673C2.48457 53.7782 2.50152 53.389 2.4846 52.9998C2.46769 52.4753 2.43381 51.9507 2.33232 51.4431C2.23083 50.9186 2.11242 50.3941 2.01093 49.8696C1.84178 49.0236 1.63883 48.1776 1.40202 47.3485C1.23287 46.7393 1.02991 46.1471 0.894589 45.521C0.860759 45.3688 0.84383 45.2165 0.826915 45.0473C0.81 44.5735 0.826915 44.0829 0.826915 43.6091V42.4585C0.826915 41.8155 0.826915 41.1726 0.826915 40.5296C0.894575 40.5296 0.962227 40.5465 1.02989 40.5634C1.02989 40.5634 1.06371 40.5634 1.08063 40.5634C1.28361 40.5634 1.48662 40.4957 1.63885 40.3604C1.74034 40.3265 1.82489 40.2927 1.92638 40.2589C2.23085 40.1404 2.53534 40.0219 2.83981 39.9204C4.20992 39.4467 5.61386 38.9391 6.79791 38.0592C7.38994 37.6193 7.98196 37.1625 8.43867 36.5702C8.65857 36.2826 8.86156 35.978 8.97996 35.6565C9.06454 35.4196 9.13217 35.1997 9.21675 34.9628C9.25058 34.8444 9.30135 34.7259 9.3521 34.6244C9.43667 34.4721 9.52124 34.3198 9.60581 34.1845C9.74113 33.9984 9.87645 33.8122 10.0287 33.643C10.3501 33.2877 10.6715 32.9662 10.9929 32.6109C11.3142 32.2556 11.6356 31.9002 11.957 31.5449C12.6167 30.8173 13.2595 30.0897 13.8853 29.3452C14.1559 29.0238 14.3758 28.6685 14.5957 28.3131C14.8156 27.9409 15.0017 27.5517 15.0863 27.1287C15.2554 26.3165 15.2723 25.4874 15.1539 24.6583C15.0355 23.88 14.7987 23.1017 14.3589 22.4249C14.0545 21.9849 13.6485 21.6127 13.1241 21.4266C12.7351 21.2743 12.3122 21.2066 11.9232 21.0882C11.8724 21.0882 11.8386 21.0543 11.7879 21.0374C11.754 21.0205 11.7202 20.9867 11.6694 20.9697C11.6356 20.9359 11.6018 20.9189 11.568 20.8851C11.568 20.8851 11.5341 20.8513 11.5172 20.8343C11.4834 20.8005 11.4664 20.7667 11.4326 20.7159C11.3988 20.6652 11.3819 20.6313 11.3481 20.5805C11.3142 20.5298 11.2973 20.4621 11.2804 20.4113C11.2804 20.4113 11.2804 20.4114 11.2804 20.3945C11.2804 20.3268 11.2804 20.259 11.2804 20.1914C11.3142 19.8868 11.365 19.5653 11.4157 19.2608C11.4665 19.007 11.5341 18.7363 11.6187 18.4825C11.6864 18.2794 11.7709 18.0933 11.8555 17.9071C11.9231 17.7887 11.9739 17.6872 12.0416 17.5687C12.1262 17.4503 12.2107 17.3488 12.2953 17.2473C12.2953 17.2473 12.3122 17.2303 12.3291 17.2134C12.3968 17.1457 12.4644 17.078 12.5321 17.0104C12.5659 16.9765 12.5997 16.9427 12.6505 16.9258C12.6843 16.9258 12.7013 16.8919 12.7351 16.875C13.2425 16.6381 13.7838 16.452 14.2574 16.1305C14.6296 15.8767 14.9002 15.4706 15.1201 15.0815C15.34 14.6077 15.4584 14.117 15.5429 13.6094C15.6444 13.0003 15.7121 12.408 15.6952 11.7989C15.6952 11.139 15.6106 10.4792 15.4076 9.83618C15.2892 9.48085 15.137 9.17628 14.9171 8.87171C14.7987 8.70251 14.6803 8.5333 14.5619 8.3641C14.4942 8.26258 14.4266 8.16107 14.3759 8.05954C14.342 7.97494 14.2913 7.87342 14.2574 7.78881C14.2405 7.72113 14.2236 7.65344 14.2067 7.56884C14.1729 7.34888 14.1559 7.112 14.1221 6.89204C14.0713 6.02911 14.0883 5.16617 14.1221 4.30324C14.139 3.88023 14.1728 3.44031 14.1728 3.01731C14.1728 2.6789 14.1728 2.3574 14.1898 2.01899C14.342 1.90055 14.4604 1.73135 14.5281 1.54522C14.545 1.54522 14.5619 1.54522 14.5788 1.54522C15.5092 1.54522 16.4225 1.54524 17.3529 1.5114C18.317 1.47756 19.2981 1.44371 20.2622 1.42679C21.2602 1.42679 22.2751 1.42678 23.2731 1.3591C24.288 1.2745 25.3198 1.20682 26.3347 1.12222C27.079 1.07146 27.8233 1.03761 28.5675 1.03761C29.261 1.03761 29.9545 1.07147 30.665 1.08839C31.4769 1.08839 32.2719 1.12222 33.0839 1.12222C33.4729 1.12222 33.845 1.12222 34.2341 1.12222C34.5893 1.12222 34.9614 1.07145 35.3166 1.03761C36.7205 0.953008 38.1245 0.953029 39.5285 0.953029C40.0867 0.953029 40.6618 0.953029 41.22 0.953029C41.5414 0.953029 41.8796 0.919188 42.201 0.953029C42.4886 0.969949 42.7761 1.00379 43.0468 1.05455C43.2328 1.08839 43.4358 1.1053 43.6388 1.1053C43.7234 1.17299 43.8249 1.24067 43.9264 1.29143C44.1124 1.39295 44.2985 1.49448 44.4676 1.61292C44.7044 1.74828 44.9413 1.90056 45.1781 2.03593C45.8039 2.47585 46.3621 3.00038 46.9373 3.49107C47.2756 3.7618 47.6138 4.03252 47.969 4.28633C48.3243 4.55705 48.6795 4.82775 49.0516 5.08156C49.4407 5.35228 49.8297 5.62303 50.2187 5.89375C50.5908 6.16447 50.963 6.45212 51.3182 6.73976C52.0117 7.29813 52.756 7.77191 53.4834 8.27952C54.1092 8.70252 54.7351 9.14245 55.3778 9.54854C56.0375 9.95463 56.6972 10.3776 57.3569 10.8006C57.6782 11.0037 58.0166 11.2067 58.3549 11.3928C58.6932 11.579 59.0315 11.7651 59.3529 11.9512C59.9787 12.3404 60.5876 12.7464 61.2135 13.1187C62.0761 13.6263 62.9389 14.1339 63.8015 14.6415C64.698 15.1661 65.6283 15.6398 66.5248 16.1644C66.9308 16.4012 67.3367 16.6212 67.7258 16.875C68.1317 17.1288 68.5377 17.3995 68.9436 17.6533C69.3327 17.9072 69.7387 18.1271 70.1446 18.364C70.6014 18.6347 71.0411 18.9393 71.4809 19.21C72.2759 19.7007 73.0709 20.2083 73.8659 20.6821C74.3226 20.9528 74.7794 21.2404 75.2192 21.5281C75.5575 21.748 75.8957 21.968 76.234 22.188C76.9275 22.611 77.638 22.9663 78.3146 23.3893C78.636 23.5924 78.9574 23.7954 79.2787 24.0154C79.2787 24.303 79.3126 24.5907 79.3295 24.8783C79.3295 25.0644 79.3464 25.2505 79.3464 25.4367C79.3295 25.5382 79.2956 25.6228 79.2618 25.7243C79.228 25.8259 79.1941 25.9274 79.1434 26.0289C78.9235 26.5873 78.7375 27.1625 78.6867 27.7717C78.636 28.1608 78.6022 28.5669 78.6022 28.973C78.6022 29.3622 78.6867 29.7175 78.8727 30.039C79.0419 30.3266 79.2449 30.5804 79.4648 30.8342C79.6847 31.088 79.9384 31.308 80.2598 31.4603C80.5304 31.5787 80.8349 31.6295 81.1225 31.6634C81.3085 31.6803 81.4946 31.7141 81.6638 31.748C81.7145 31.748 81.7483 31.7649 81.7991 31.7818C81.8329 31.7987 81.8667 31.8325 81.8836 31.8495C82.0528 32.0018 82.222 32.154 82.3911 32.2894C82.5772 32.4417 82.7801 32.577 82.9662 32.7293C83.1184 32.8816 83.2707 33.0339 83.4229 33.1692C83.609 33.3554 83.7951 33.5076 83.9811 33.6768C84.0657 33.7445 84.1503 33.8291 84.2348 33.8968C84.5393 34.1845 84.8438 34.4552 85.1651 34.7259C85.5204 35.0136 85.9094 35.2674 86.2647 35.5381C87.0597 36.1472 87.8377 36.7563 88.6327 37.3316C89.3263 37.8392 90.0029 38.3807 90.6964 38.8883C90.9332 39.0744 91.17 39.2775 91.4068 39.4636C91.5421 39.5651 91.6775 39.6666 91.8128 39.7851C91.9312 39.8866 92.0496 40.005 92.1849 40.0896C92.2018 40.0896 92.2187 40.1235 92.2525 40.1404C91.8973 40.6818 91.559 41.2572 91.3053 41.8663C91.0685 42.4754 90.8317 43.0845 90.6456 43.6937C90.4934 44.2351 90.3581 44.7766 90.2566 45.3349C90.0367 46.5363 90.0029 47.7545 90.0029 48.9728C90.0029 50.7325 90.0198 52.4922 90.2735 54.2519C90.3242 54.6411 90.375 55.0303 90.4934 55.4194C90.578 55.724 90.6794 56.0117 90.7809 56.2993C91.0516 57.0438 91.373 57.7544 91.762 58.4482C92.2357 59.2942 92.6923 60.1233 93.2336 60.9185C93.6734 61.5615 94.1639 62.1706 94.6206 62.8136C94.8574 63.1689 95.0774 63.5243 95.2803 63.8965C95.5002 64.3026 95.7539 64.6917 95.9569 65.0978C96.0077 65.1993 96.0584 65.3178 96.0923 65.4193C96.1261 65.5208 96.143 65.6224 96.1599 65.707C96.2276 66.0454 96.2783 66.3838 96.3121 66.7391C96.3121 66.8406 96.3121 66.9252 96.3291 67.0268C96.3291 67.0944 96.3291 67.1621 96.2952 67.2129C96.2614 67.3482 96.2445 67.4836 96.2106 67.602C96.143 67.9405 96.0584 68.2619 95.9569 68.5834C95.737 69.1756 95.5172 69.7678 95.2465 70.3431C95.0266 70.8 94.8067 71.2399 94.6037 71.6967C94.3331 72.3059 94.0624 72.9319 93.8425 73.558C93.5042 74.4547 93.2167 75.3854 93.1152 76.3498C93.0137 77.2973 93.0814 78.2957 93.1998 79.2432C93.3182 80.2077 93.5042 81.1552 93.7241 82.1027C93.9271 83.0164 94.1809 83.9132 94.4515 84.81C94.7052 85.6221 94.9589 86.4343 95.2634 87.2296C95.551 87.991 95.8724 88.7355 96.2276 89.463C96.4813 89.9537 96.7519 90.4275 97.0056 90.9182C97.0056 90.9351 97.0226 90.969 97.0395 90.9859C97.1748 91.2566 97.2763 91.5104 97.3778 91.798C97.6653 92.7117 97.8514 93.6593 98.1559 94.5561C98.3927 95.2329 98.6464 95.8928 98.9847 96.5188C99.3061 97.1279 99.6444 97.7033 100.033 98.2785C100.406 98.8369 100.795 99.3953 101.184 99.9536C101.488 100.377 101.776 100.8 102.114 101.206C102.368 101.527 102.638 101.849 102.943 102.119C103.146 102.306 103.349 102.475 103.569 102.627C103.704 102.729 103.856 102.83 103.992 102.932C104.042 102.982 104.093 103.033 104.144 103.084C104.211 103.169 104.279 103.236 104.33 103.321V103.439Z" fill="#1E3D4C"/>
</svg>
