<svg width="51" height="60" viewBox="0 0 51 60" fill="none" xmlns="http://www.w3.org/2000/svg">
<path d="M50.9231 22.6695C50.957 23.2279 50.957 23.8032 50.9231 24.3615C50.8893 24.6661 50.8555 24.9537 50.7878 25.2583C50.7371 25.5121 50.6694 25.7659 50.5849 26.0197C50.4665 26.3412 50.3311 26.6627 50.162 26.9842C50.1112 27.0857 50.0436 27.2041 49.9759 27.3056C49.7053 27.7117 49.4177 28.1009 49.1302 28.507C48.8257 28.9131 48.5551 29.3361 48.2168 29.7253C48.0645 29.8775 47.9292 30.0298 47.76 30.1821C47.4387 30.4528 47.1004 30.7236 46.7621 30.9943C46.373 31.3158 46.0009 31.6711 45.6795 32.0433C45.0029 32.8217 44.3263 33.6 43.7174 34.446C43.2268 35.1397 42.7363 35.8842 42.5671 36.7303C42.4149 37.424 42.4149 38.1177 42.2965 38.8114C42.195 39.2514 42.1105 39.6913 41.9751 40.1143C41.9751 40.1482 41.9413 40.182 41.9244 40.2327C41.8736 40.3343 41.806 40.4189 41.7552 40.5035C41.6537 40.6727 41.5691 40.825 41.4677 40.9942C41.2985 41.248 41.1125 41.4848 40.9602 41.7386C40.808 41.9755 40.6896 42.2463 40.5881 42.517C40.402 43.0415 40.2836 43.5491 40.2498 44.1075C40.199 44.7843 40.216 45.4611 40.216 46.1379C40.216 46.8824 40.216 47.61 40.216 48.3545C40.216 49.945 40.1314 51.5355 40.0975 53.126C39.9622 53.126 39.8438 53.0922 39.7085 53.0753C39.4886 53.0583 39.2856 53.0245 39.0658 53.0245C38.8628 53.0245 38.6598 53.0245 38.4568 53.0245C37.7971 53.0414 37.1543 53.0414 36.4946 53.0414C35.6151 53.0414 34.7524 53.0414 33.8728 53.0583C33.4161 53.0583 32.9594 53.0922 32.5027 53.1091C32.046 53.126 31.5893 53.1768 31.1326 53.2106C30.6421 53.2275 30.1684 53.2106 29.6948 53.2106C29.2043 53.2106 28.7137 53.2106 28.2063 53.1937C27.7496 53.1937 27.3098 53.1937 26.8531 53.1768C26.4133 53.1768 25.9566 53.1429 25.5168 53.1429C24.5357 53.1429 23.5378 53.1937 22.5567 53.2783C21.6094 53.346 20.6791 53.4306 19.7319 53.4813C18.8523 53.5321 17.9727 53.4983 17.0931 53.5152C16.1966 53.5321 15.3001 53.5659 14.4036 53.5998C13.5579 53.6336 12.7122 53.6336 11.8833 53.6336C11.4604 53.6336 11.0206 53.6336 10.5978 53.6675C10.1749 53.6675 9.76896 53.7182 9.363 53.7521C8.87246 53.7859 8.39883 53.8198 7.92521 53.9213C7.65457 53.989 7.38391 54.0736 7.11327 54.1582C6.89337 54.2258 6.67351 54.2935 6.45361 54.3612C6.18297 54.4458 5.92921 54.5812 5.67548 54.7165C5.42176 54.835 5.16805 54.9534 4.94815 55.1057C4.69443 55.2749 4.49146 55.4948 4.27156 55.6979C4.0855 55.8502 3.91637 56.0194 3.76413 56.2224C3.59498 56.4593 3.47654 56.73 3.35814 57.0008C3.25665 57.2376 3.13827 57.4745 3.01987 57.7114C2.86763 58.0498 2.74923 58.3882 2.59699 58.7097C2.51242 58.8451 2.4278 58.9804 2.34322 59.1327C2.30939 59.1835 2.25867 59.2512 2.20793 59.3019C2.19101 59.3188 2.1741 59.3358 2.15718 59.3527C2.08952 59.3188 2.03875 59.285 1.97109 59.2342C1.63279 58.9804 1.31145 58.7097 0.956233 58.4897C0.787082 58.3713 0.601021 58.2698 0.431871 58.1683C0.414956 58.1344 0.381112 58.1006 0.364197 58.0667C0.431857 57.6437 0.465699 57.2038 0.482614 56.7639C0.516444 56.0025 0.482614 55.2241 0.482614 54.4627C0.465699 53.6505 0.431869 52.8553 0.482614 52.0431C0.516444 51.7216 0.550235 51.4171 0.60098 51.0956C0.7363 50.4865 0.92238 49.9112 1.09153 49.319C1.22685 48.8113 1.31141 48.3037 1.39599 47.7792C1.53131 46.9332 1.64975 46.0872 1.7005 45.2242C1.7005 45.275 1.7005 45.3089 1.7005 45.3596C1.73433 44.9028 1.78507 44.429 1.80198 43.9721C1.83581 43.3799 1.83578 42.7877 1.86961 42.2124C1.90344 41.7725 1.92038 41.3326 1.95421 40.8926C1.97113 40.6219 2.00495 40.3512 2.0557 40.0636C2.12336 39.7928 2.19103 39.539 2.2756 39.2683C2.52933 38.5576 2.81685 37.847 3.08749 37.1363C3.34121 36.4765 3.57803 35.7996 3.8825 35.1567C4.0009 34.9367 4.11931 34.7337 4.25463 34.5137C4.38995 34.3107 4.54222 34.1076 4.71137 33.9215C4.8636 33.7523 5.01584 33.6 5.18499 33.4477C5.35414 33.3124 5.52326 33.177 5.69242 33.0416C6.09838 32.7709 6.48741 32.5171 6.89337 32.2464C7.33316 31.9587 7.78988 31.688 8.22967 31.4004C8.6018 31.1635 9.00774 30.9773 9.37988 30.7235C9.73509 30.4697 10.0903 30.1652 10.344 29.8099C10.6654 29.353 10.9361 28.8454 11.2405 28.3716C11.5281 27.9655 11.8495 27.5764 12.137 27.1703C12.4415 26.7473 12.7122 26.2904 13.0166 25.8505C13.3211 25.4106 13.6425 24.9707 13.9808 24.5476C14.4036 24.04 14.8265 23.5324 15.2156 23.0079C15.4524 22.7033 15.6723 22.3988 15.8752 22.0942C16.0782 21.7727 16.2981 21.4512 16.3489 21.0451C16.3827 20.7913 16.332 20.5375 16.2812 20.3006C16.2474 20.1484 16.2136 20.013 16.1628 19.8607C16.0106 19.4208 15.8076 19.0147 15.52 18.6255C15.2325 18.2364 14.8942 17.9149 14.4713 17.678C13.9977 17.4242 13.4733 17.3396 12.949 17.2381C12.746 17.1873 12.5599 17.1366 12.3739 17.0689C12.1709 17.0012 11.9679 16.9166 11.7818 16.832C11.5619 16.7136 11.359 16.5951 11.156 16.4767C11.0883 16.4259 11.0037 16.3751 10.9361 16.3244C10.9192 16.3075 10.9023 16.2905 10.8853 16.2736C10.8853 16.2736 10.8515 16.2398 10.8515 16.2229C10.8007 16.1552 10.7669 16.0706 10.7331 16.0029C10.6654 15.8675 10.5978 15.7153 10.547 15.5799C10.547 15.546 10.5301 15.5122 10.5301 15.4953C10.5301 15.4276 10.5132 15.3599 10.4963 15.2922C10.4963 15.0215 10.4963 14.7508 10.5132 14.4801C10.5132 14.3278 10.547 14.1755 10.5639 14.0401C10.7331 13.3126 10.953 12.585 11.2067 11.8743C11.4266 11.2483 11.6465 10.6053 11.8495 9.97928C11.9341 9.70855 12.0017 9.4209 12.0525 9.15017C12.1201 8.81177 12.2047 8.47338 12.2385 8.13497C12.2893 7.492 12.2893 6.83209 12.1709 6.18912C12.1201 5.95224 12.0863 5.73227 12.0186 5.49538C12.0186 5.44462 11.9848 5.39387 11.9848 5.34311C12.0525 5.27543 12.1032 5.20775 12.1709 5.14007C12.2216 5.07239 12.2893 5.0047 12.34 4.9201C12.4077 4.85242 12.4753 4.78474 12.543 4.73398C12.7121 4.58169 12.8982 4.44633 13.1012 4.31097C13.2365 4.22637 13.3718 4.14177 13.5071 4.07409C13.5748 4.04025 13.6594 4.00641 13.727 3.97257C13.7609 3.97257 13.7947 3.95564 13.8285 3.93872C13.9131 3.93872 13.9808 3.92182 14.0654 3.9049C14.133 3.9049 14.2007 3.9049 14.2683 3.9049C14.3191 3.93874 14.3868 3.97258 14.4375 4.00642C14.7081 4.19254 14.9788 4.39557 15.2663 4.54785C15.6554 4.7509 16.0782 4.88626 16.518 4.86934C17.313 4.8355 18.0065 4.41249 18.7508 4.12484C18.8185 4.10792 18.8861 4.09101 18.9538 4.07409C19.1906 4.02333 19.4274 4.00641 19.6642 3.97257C19.7319 3.97257 19.7995 3.97257 19.8672 3.97257C19.9179 3.97257 19.9687 3.97256 20.0194 3.98948C20.0871 3.98948 20.1717 4.02332 20.2393 4.04024C20.2732 4.04024 20.3239 4.07408 20.3578 4.091C20.4085 4.12484 20.4761 4.1587 20.5269 4.19254C20.7468 4.36174 20.9667 4.53093 21.2035 4.68322C21.5249 4.88626 21.8631 5.03856 22.2184 5.17392C22.5905 5.30928 22.9626 5.41078 23.3517 5.44463C23.7746 5.49539 24.2313 5.44462 24.6372 5.30926C25.0094 5.19082 25.3646 5.03855 25.7029 4.85243C26.0074 4.68323 26.3118 4.49709 26.6163 4.31097C27.1068 4.02332 27.5635 3.70185 28.071 3.44804C28.2401 3.36344 28.4093 3.29575 28.5784 3.22807C28.6968 3.19423 28.8153 3.16039 28.9167 3.12655C29.0859 3.09271 29.255 3.0758 29.4411 3.05888C29.6779 3.05888 29.9316 3.04196 30.1684 3.05888C30.2361 3.05888 30.3207 3.05887 30.3883 3.09271C30.4898 3.10963 30.5744 3.14348 30.6759 3.1604C30.7266 3.17732 30.7605 3.19424 30.8112 3.21116C30.9296 3.27884 31.048 3.34651 31.1664 3.4142C31.3863 3.56648 31.6062 3.71876 31.8599 3.8372C32.1475 3.95565 32.452 4.05716 32.7564 4.091C33.0271 4.12484 33.2977 4.14177 33.5684 4.12484C33.8052 4.10792 34.042 4.04026 34.2619 3.95566C34.6002 3.83722 34.9215 3.65109 35.226 3.44804C35.5305 3.245 35.8012 3.02502 36.1056 2.82198C36.3424 2.66969 36.5961 2.55125 36.816 2.39897C37.0359 2.26361 37.2389 2.12825 37.4588 2.00981C37.5095 1.99289 37.5434 1.97597 37.5942 1.95905C37.8479 1.89137 38.1016 1.82369 38.3722 1.77293C38.4906 1.75601 38.609 1.73909 38.7274 1.72217C38.9981 1.72217 39.2687 1.70526 39.5224 1.70526C39.7254 1.70526 39.9284 1.70526 40.1314 1.70526C40.4359 1.68834 40.7065 1.55298 40.9772 1.41761C41.1971 1.29917 41.3662 1.12997 41.5353 0.943848C41.6706 1.06229 41.8229 1.18071 41.9582 1.31607C42.1443 1.48527 42.3134 1.65448 42.4656 1.82368C42.7194 2.12825 42.9393 2.44975 43.193 2.73739C43.3791 2.95736 43.582 3.14347 43.8019 3.32959C43.988 3.48187 44.1741 3.61725 44.4109 3.71877C44.5462 3.78646 44.6985 3.82028 44.8338 3.88796C44.9353 3.93872 45.0367 4.0064 45.1382 4.07409C45.2397 4.14177 45.3412 4.19253 45.4427 4.26021C45.4427 4.29405 45.4427 4.31098 45.4596 4.34482C45.4765 4.44634 45.4934 4.56478 45.4934 4.66631C45.5103 5.20776 45.4258 5.76613 45.4934 6.30758C45.5442 6.88287 45.6964 7.45814 45.9163 7.98267C46.2039 8.6764 46.5422 9.35322 46.982 9.94543C47.4218 10.5376 47.8954 11.096 48.3013 11.7051C48.5381 12.0774 48.758 12.4496 48.9779 12.8388C49.0794 13.0588 49.164 13.2787 49.2486 13.5156C49.3501 13.8371 49.4516 14.1417 49.5192 14.4631C49.57 14.7677 49.6038 15.0892 49.6376 15.3938C49.6715 15.8675 49.6714 16.3244 49.6714 16.7982C49.6714 17.255 49.6207 17.7288 49.6714 18.1856C49.7391 18.6763 49.9421 19.1162 50.1451 19.5562C50.2973 19.9284 50.4664 20.2837 50.6017 20.656C50.6694 20.859 50.7202 21.079 50.7709 21.299C50.8555 21.7727 50.9062 22.2634 50.9401 22.7541L50.9231 22.6695Z" fill="#1E3D4C"/>
</svg>
