<svg width="111" height="108" viewBox="0 0 111 108" fill="none" xmlns="http://www.w3.org/2000/svg">
<path d="M110.615 27.4341C110.615 27.4341 110.615 27.5019 110.615 27.5357C110.598 27.6203 110.564 27.7049 110.547 27.7726C110.497 27.891 110.463 27.9925 110.412 28.0941C110.378 28.1617 110.344 28.2294 110.294 28.2802C110.277 28.314 110.26 28.331 110.226 28.3648C110.192 28.3986 110.175 28.4156 110.141 28.4325C109.989 28.5509 109.837 28.6694 109.668 28.7878C109.33 29.0078 108.974 29.2277 108.653 29.4646C108.247 29.7861 107.824 30.1583 107.587 30.6152C107.452 30.8521 107.35 31.089 107.283 31.3428C107.215 31.5627 107.215 31.7996 107.215 32.0196C107.215 32.2057 107.249 32.3918 107.283 32.5779C107.35 32.9671 107.503 33.3224 107.638 33.6947C107.655 33.7454 107.672 33.8131 107.689 33.8639C107.689 33.9147 107.689 33.9485 107.689 33.9992C107.689 34.0838 107.689 34.1684 107.689 34.253C107.672 34.473 107.638 34.676 107.587 34.896C107.469 35.4544 107.35 36.0127 107.3 36.588C107.249 37.2479 107.266 37.9078 107.283 38.5677C107.3 39.1769 107.317 39.8029 107.435 40.412C107.503 40.7335 107.57 41.055 107.672 41.3765C107.756 41.6641 107.841 41.9349 107.909 42.2225C108.027 42.8993 108.129 43.5761 108.281 44.2529C108.365 44.5744 108.45 44.8959 108.535 45.2174C108.585 45.4204 108.653 45.6235 108.687 45.8265C108.687 45.8942 108.704 45.945 108.721 46.0126C108.721 46.0634 108.721 46.1142 108.721 46.1649C108.721 46.2495 108.704 46.3172 108.687 46.4018C108.687 46.4357 108.687 46.4526 108.67 46.4864C108.67 46.4864 108.67 46.5203 108.653 46.5372C108.653 46.5372 108.653 46.5541 108.636 46.571C108.636 46.588 108.602 46.6048 108.585 46.6387C108.518 46.7064 108.45 46.774 108.382 46.8417C108.162 47.0278 107.926 47.214 107.689 47.3662C107.435 47.5185 107.181 47.6539 106.928 47.8062C106.623 47.9754 106.336 48.1615 106.048 48.3815C105.473 48.8214 104.949 49.346 104.593 49.9889C104.187 50.7165 103.883 51.5287 103.798 52.3578C103.731 53.0684 103.866 53.796 103.917 54.5066C103.917 54.9127 103.917 55.3019 103.917 55.6911C103.883 55.9787 103.849 56.2664 103.798 56.554C103.748 56.774 103.697 56.977 103.629 57.18C103.629 57.18 103.629 57.197 103.629 57.2139C103.443 57.7046 103.206 58.1783 103.054 58.6859C102.885 59.2274 102.767 59.7858 102.783 60.3441C102.783 60.6318 102.834 60.9364 102.902 61.2071C102.953 61.444 103.02 61.6809 103.105 61.9008C103.223 62.1546 103.359 62.4084 103.528 62.6453C103.663 62.8314 103.815 63.0006 103.967 63.1867C104.323 63.5928 104.678 63.9651 105.101 64.2865C105.135 64.3204 105.168 64.3373 105.202 64.3712C104.627 64.6588 104.035 64.9126 103.443 65.1326C102.783 65.3525 102.124 65.5725 101.447 65.7248C100.703 65.894 99.9417 66.0632 99.1974 66.2832C97.6582 66.74 96.1358 67.2984 94.6473 67.9075C93.2603 68.4828 91.8733 69.0412 90.4862 69.6672C89.8265 69.9718 89.1669 70.2425 88.4903 70.4963C87.7967 70.767 87.0863 71.0039 86.3759 71.2746C85.7331 71.5115 85.0903 71.7484 84.4645 72.0361C83.8555 72.3237 83.2297 72.6113 82.6208 72.8651C81.9611 73.1528 81.3013 73.4743 80.6755 73.7958C80.2526 74.0158 79.8297 74.2526 79.4069 74.4557C79.2208 74.5403 79.0178 74.6249 78.8318 74.7264C78.5273 74.8787 78.2736 75.1832 78.189 75.5047C78.0706 75.9954 78.2736 76.503 78.392 76.9768C78.4935 77.552 78.5611 78.1274 78.6119 78.7196C78.6457 79.0749 78.6626 79.4471 78.7641 79.8025C78.8656 80.1578 78.984 80.5131 79.0686 80.8854C79.1024 81.0715 79.1362 81.2576 79.1531 81.4607C79.0347 81.4607 78.9333 81.4607 78.8149 81.4607C78.392 81.4945 77.9691 81.5791 77.5293 81.613C77.2587 81.613 76.9711 81.6129 76.7005 81.6298C76.007 81.6468 75.3134 81.6298 74.6199 81.6298C73.8588 81.6298 73.0638 81.6299 72.3026 81.7483C71.812 81.816 71.3553 81.9513 70.9494 82.2221C70.6111 82.442 70.3066 82.6958 70.036 82.9835C69.6131 83.4234 69.2409 83.8972 68.835 84.354C68.6997 84.5063 68.5644 84.6417 68.429 84.777C68.3952 84.794 68.3783 84.8278 68.3445 84.8447C68.3106 84.8617 68.2768 84.8786 68.243 84.8955C68.1753 84.9293 68.1076 84.9462 68.04 84.9801C67.9046 85.0308 67.7524 85.0647 67.6002 85.0985C67.3127 85.1493 67.0251 85.2 66.7375 85.2846C66.3654 85.3862 66.0102 85.5384 65.655 85.7246C65.0799 86.0122 64.5893 86.3845 64.1665 86.8583C63.7943 87.2982 63.473 87.7719 63.3207 88.3303C63.1516 88.9225 63.1685 89.5316 63.1346 90.1239C63.1008 90.4623 63.0501 90.8007 62.9993 91.1221C62.9486 91.376 62.8809 91.6298 62.8132 91.8666C62.7287 92.1035 62.6103 92.3404 62.5088 92.5773C62.3735 92.8311 62.2381 93.0849 62.0859 93.3218C62.0521 93.3725 62.0014 93.4402 61.9506 93.491C61.9168 93.5417 61.866 93.5756 61.8153 93.6264C61.6799 93.7279 61.5446 93.8294 61.4093 93.9309C61.2402 94.0324 61.071 94.1339 60.885 94.2185C60.479 94.4047 60.073 94.5739 59.6671 94.7431C59.2442 94.9292 58.8213 95.1153 58.3984 95.3015C57.5527 95.6906 56.7239 96.1137 55.8612 96.4859C55.4214 96.672 54.9985 96.8581 54.5756 97.0612C54.0682 97.2981 53.5438 97.5857 53.1886 98.0256C52.6981 98.6517 52.5966 99.4469 52.4444 100.208C52.3598 100.581 52.2583 100.936 52.1399 101.291C52.0384 101.562 51.9369 101.816 51.8185 102.07C51.7508 102.188 51.6832 102.29 51.6155 102.408C51.514 102.543 51.4125 102.679 51.2941 102.814C50.9389 103.203 50.5837 103.592 50.1947 103.948C50.1101 104.015 50.0086 104.1 49.924 104.168C49.2474 104.608 48.537 105.014 47.8435 105.437C47.3191 105.758 46.7609 106.08 46.2196 106.367C46.0505 106.452 45.8813 106.52 45.6953 106.587C45.2216 106.74 44.7311 106.875 44.2406 106.993C44.0376 107.027 43.8346 107.061 43.6316 107.078C43.3271 107.078 43.0227 107.078 42.7351 107.078C42.2108 107.027 41.6864 106.943 41.162 106.841C40.6038 106.723 40.0456 106.553 39.4536 106.553C38.9123 106.553 38.388 106.672 37.8636 106.773C37.593 106.824 37.3223 106.875 37.0517 106.892C36.9333 106.892 36.8318 106.892 36.7134 106.892C36.5104 106.875 36.3074 106.841 36.1044 106.807C35.9353 106.773 35.7662 106.723 35.6139 106.672C35.4955 106.621 35.394 106.587 35.2925 106.537C35.191 106.486 35.1065 106.418 35.005 106.367C34.8358 106.249 34.6667 106.114 34.4806 105.995C34.3115 105.894 34.1254 105.809 33.9562 105.724C33.5841 105.555 33.212 105.42 32.806 105.335C32.3493 105.234 31.8926 105.166 31.419 105.149C30.9961 105.132 30.5902 105.132 30.1673 105.098C29.9812 105.098 29.8121 105.064 29.626 105.048C29.4738 105.048 29.3215 105.048 29.1693 105.031C29.1016 105.031 29.0509 105.031 28.9832 105.014C28.9156 104.98 28.8479 104.929 28.7972 104.895C28.7633 104.878 28.7464 104.845 28.7126 104.828C28.6788 104.794 28.6449 104.76 28.6111 104.726C28.425 104.506 28.239 104.269 28.0191 104.066C27.7823 103.846 27.5116 103.66 27.2579 103.44C26.6659 102.916 26.0569 102.425 25.3127 102.137C24.9575 102.002 24.6022 101.883 24.2301 101.765C23.9425 101.664 23.6381 101.579 23.3336 101.511C22.6232 101.342 21.9297 101.257 21.2023 101.207C20.4919 101.156 19.7815 101.173 19.071 101.207C18.4283 101.224 17.7855 101.291 17.1596 101.359C16.6522 101.41 16.1616 101.562 15.6711 101.697C15.2313 101.833 14.7746 101.9 14.3517 102.036C13.692 102.256 13.0493 102.56 12.3896 102.797C12.1697 102.882 11.9498 102.966 11.7299 103.068C11.7299 103.068 11.7299 103.068 11.713 103.051C11.713 103.051 11.713 103.051 11.7299 103.068C11.3578 102.594 10.9857 102.087 10.6135 101.613C10.0384 100.885 9.44638 100.158 8.85436 99.4638C8.26233 98.7701 7.65341 98.0764 6.99372 97.4334C6.67233 97.1289 6.33403 96.8243 6.01265 96.5197C5.70818 96.2321 5.40369 95.9106 5.09922 95.606C4.77784 95.2845 4.42264 94.9969 4.08434 94.6754C3.77987 94.3878 3.4923 94.1001 3.20475 93.7955C2.95102 93.491 2.69729 93.1695 2.46048 92.8311C2.24059 92.4927 2.05454 92.1373 1.86847 91.782C1.64858 91.3421 1.42867 90.8853 1.19186 90.4453C1.07345 90.2254 0.938139 89.9885 0.802819 89.7854C0.735159 89.6839 0.667507 89.5824 0.599847 89.4639C0.582932 89.4132 0.565993 89.3794 0.549078 89.3286C0.549078 89.1594 0.549078 89.0071 0.549078 88.8379C0.549078 88.6349 0.515267 88.4318 0.515267 88.2119C0.498352 87.9242 0.447602 87.6366 0.430687 87.332C0.379942 86.4183 0.379944 85.4877 0.379944 84.5571C0.379944 82.7297 0.413781 80.9023 0.413781 79.0749C0.413781 78.0597 0.413763 77.0444 0.447593 76.0292C0.464508 75.014 0.481428 73.9819 0.532173 72.9667C0.582918 71.9176 0.633675 70.8855 0.65059 69.8364C0.65059 69.3119 0.650581 68.7705 0.667496 68.2459C0.667496 67.7214 0.701333 67.2138 0.701333 66.6892C0.701333 66.2155 0.701315 65.7417 0.735145 65.2679C0.735145 64.828 0.768998 64.3881 0.785913 63.9312C0.819743 62.9499 0.819723 61.9685 0.870468 60.9871C0.921213 60.3611 1.00581 59.7181 1.07347 59.0921C1.15804 58.3645 1.22569 57.6538 1.27644 56.9263C1.32718 56.2494 1.32719 55.5726 1.31027 54.8958C1.31027 54.6589 1.29335 54.4221 1.27644 54.1852H1.31027C1.31027 54.1852 1.39484 54.1852 1.42867 54.1852C1.83463 54.1513 2.25749 54.1174 2.66346 54.0836C4.10123 53.999 5.53901 54.0328 6.97679 54.0328C8.80361 54.0328 10.6473 54.0328 12.4742 54.0328C13.4214 54.0328 14.3687 53.9821 15.3159 53.9652C15.6542 53.9652 15.9925 53.9652 16.3308 53.9652C16.5507 53.9652 16.7706 53.9314 16.9905 53.9144C17.3288 53.8975 17.684 53.8806 18.0223 53.8298C18.2084 53.8129 18.3944 53.7622 18.5974 53.7452C18.6482 53.7452 18.7158 53.7452 18.7666 53.7452C18.9695 53.7114 19.1387 53.6437 19.3078 53.5253C19.6631 53.2884 19.7984 52.8146 19.7307 52.4255C19.6631 52.0194 19.5447 51.6302 19.4601 51.2241C19.4262 51.0211 19.3924 50.818 19.3755 50.598C19.3755 50.4288 19.3755 50.2596 19.3755 50.0904C19.3755 49.9382 19.4093 49.769 19.4262 49.6167C19.477 49.4306 19.5277 49.2444 19.5785 49.0583C19.6969 48.7368 19.8491 48.4153 19.9506 48.0769C20.0521 47.7385 20.1198 47.3832 20.1198 47.0279C20.1198 46.6218 20.069 46.1988 20.0183 45.7927C19.9675 45.3527 19.866 44.9298 19.7815 44.4898C19.7815 44.4898 19.7815 44.4898 19.7815 44.4729C19.7815 44.4391 19.7815 44.4222 19.7815 44.3883C19.7307 44.1007 19.68 43.813 19.6461 43.5084C19.6292 43.1869 19.6461 42.8655 19.6461 42.544C19.6461 42.3748 19.68 42.1887 19.7138 42.0195C19.7138 41.9687 19.7476 41.901 19.7645 41.8503C20.069 40.7166 20.5426 39.5829 20.5765 38.3816C20.5765 37.8571 20.5426 37.3156 20.475 36.7911C20.4073 36.3342 20.2889 35.8943 20.1874 35.4544C20.1367 35.2344 20.1028 35.0145 20.0859 34.7776C20.069 34.2192 20.0859 33.6608 20.0859 33.1025C20.0859 32.781 20.0859 32.4764 20.1029 32.1549C20.1029 32.138 20.1029 32.1211 20.1029 32.1042C20.1874 32.0365 20.272 31.9688 20.3397 31.9011C20.3566 31.9011 20.3735 31.9011 20.3904 31.9011C20.4919 31.9011 20.5765 31.918 20.678 31.935C20.7625 31.9519 20.8471 31.9857 20.9317 32.0026C20.9993 32.0196 21.0501 32.0534 21.1177 32.0872C21.2361 32.1549 21.3376 32.2057 21.4391 32.2734C21.5406 32.3411 21.6252 32.4087 21.7267 32.4934C21.7774 32.5441 21.8282 32.5949 21.8789 32.6456C21.8789 32.6456 21.8958 32.6794 21.9127 32.6794C21.9127 32.6794 21.9128 32.6964 21.9297 32.7133C21.9635 32.781 21.9804 32.8487 22.0142 32.9164C22.2849 33.847 22.3356 34.8453 22.8938 35.6574C23.2829 36.2327 23.9087 36.5373 24.5853 36.588C25.1097 36.6219 25.6341 36.5712 26.1415 36.4189C26.5644 36.2835 26.9534 36.0974 27.3425 35.8774C27.6469 35.7082 27.9683 35.5559 28.2728 35.3698C28.4758 35.2513 28.6618 35.1329 28.8648 35.0145C28.9494 34.9806 29.034 34.9468 29.1186 34.9129C29.2708 34.8622 29.423 34.8114 29.5752 34.7776C29.6767 34.7776 29.7782 34.7437 29.8797 34.7437C29.9136 34.7437 29.9643 34.7437 29.9981 34.7437C30.0827 34.7437 30.1504 34.7607 30.2349 34.7776C30.3533 34.8114 30.4887 34.8453 30.6071 34.8791C30.6578 34.896 30.6916 34.913 30.7424 34.9299C30.7424 34.9299 30.7593 34.9298 30.7762 34.9468C30.7762 34.9468 30.7762 34.9468 30.7931 34.9637C30.7931 34.9637 30.8101 34.9806 30.827 34.9975C30.8608 35.0314 30.8777 35.0652 30.8946 35.099C30.9284 35.1498 30.9623 35.2175 30.9961 35.2683C31.0299 35.3529 31.0807 35.4544 31.1145 35.539C31.1145 35.5897 31.1483 35.6574 31.1653 35.7082C31.1991 35.962 31.1991 36.2327 31.2498 36.4865C31.3006 36.8757 31.419 37.2648 31.5543 37.6371C31.8419 38.3816 32.2986 39.143 32.9075 39.6675C33.1612 39.8875 33.4657 40.0567 33.7702 40.1921C34.0577 40.3274 34.3622 40.4628 34.6667 40.5812C35.1572 40.7674 35.6647 40.8181 36.189 40.8181H36.4766C36.7303 40.8181 36.984 40.8181 37.2377 40.8181C37.6268 40.8519 38.0328 40.9196 38.4218 40.9873C38.5064 41.0042 38.591 41.0212 38.6755 41.055C38.7263 41.0719 38.7939 41.1058 38.8447 41.1227C38.9124 41.1735 38.9969 41.2073 39.0646 41.258C39.3014 41.4273 39.5382 41.6134 39.7919 41.7656C40.0626 41.9179 40.3501 42.0364 40.6546 42.1379C41.3312 42.3748 41.9909 42.5778 42.7013 42.6455C43.1073 42.6794 43.5302 42.7301 43.9192 42.6624C44.2744 42.6117 44.5958 42.5102 44.9172 42.3748C45.1202 42.2733 45.3231 42.1718 45.5261 42.0702C45.9828 41.8164 46.3888 41.5119 46.7609 41.1227C47.0823 40.7843 47.3191 40.3782 47.6067 40.0228C47.6574 39.9721 47.7251 39.9044 47.7758 39.8537C47.8266 39.8198 47.8604 39.786 47.9111 39.7521C47.9619 39.7183 48.0126 39.6845 48.0634 39.6675C48.0972 39.6675 48.131 39.6337 48.1649 39.6168C48.1987 39.6168 48.2494 39.5999 48.2832 39.583C48.3171 39.583 48.3509 39.583 48.3848 39.583C48.4186 39.583 48.4524 39.583 48.4862 39.583C48.537 39.583 48.5877 39.5829 48.6216 39.5998C48.6892 39.5998 48.74 39.6337 48.8076 39.6506C48.8584 39.6675 48.926 39.7014 48.9768 39.7183C49.0275 39.7521 49.0952 39.786 49.1459 39.8198C49.1967 39.8537 49.2643 39.9044 49.3151 39.9383C49.4842 40.0906 49.6364 40.2598 49.7887 40.429C49.8902 40.5474 49.9917 40.6658 50.0763 40.7843C50.0763 40.8181 50.1101 40.835 50.127 40.8689C50.127 40.8858 50.1439 40.9196 50.1608 40.9366C50.1946 41.0381 50.2116 41.1396 50.2454 41.2411C50.33 41.698 50.3807 42.1717 50.5837 42.6117C50.8374 43.1531 51.2095 43.6607 51.6155 44.1006C51.8692 44.3714 52.1568 44.6252 52.4613 44.8113C52.7826 45.0144 53.121 45.1667 53.4762 45.302C54.102 45.5389 54.7617 45.6912 55.4214 45.8265C55.4214 45.8265 55.489 45.8265 55.5229 45.8434C55.7597 45.8942 55.9965 45.928 56.2333 45.9619C56.4363 45.9788 56.6562 45.9957 56.8592 45.9957C56.9099 45.9957 56.9607 45.9957 57.0114 45.9957C57.2651 46.0465 57.5189 46.1311 57.7557 46.1988C57.7895 46.1988 57.8233 46.2326 57.8571 46.2496C57.9248 46.2834 57.9925 46.3341 58.0601 46.368C58.28 46.5202 58.483 46.6725 58.686 46.8417C58.8551 47.0109 59.0243 47.1802 59.1934 47.3494C59.3795 47.5524 59.5825 47.7216 59.7855 47.9246C59.9546 48.0939 60.1068 48.28 60.276 48.4661C60.4113 48.6015 60.5467 48.7368 60.682 48.8722C60.7158 48.9229 60.7665 48.9737 60.8003 49.0245C60.9188 49.2106 61.0372 49.4136 61.1725 49.5997C61.2909 49.7689 61.4431 49.9382 61.5954 50.0904C61.8322 50.3442 62.1197 50.5473 62.3396 50.818C62.5426 51.0549 62.7287 51.3087 62.9147 51.5625C62.9993 51.6809 63.067 51.8163 63.1346 51.9347C63.1854 52.0532 63.253 52.1886 63.2869 52.3239C63.3038 52.3916 63.3376 52.4593 63.3545 52.5439C63.5068 52.9669 63.6421 53.3899 63.7436 53.8298C63.8113 54.1682 63.862 54.5236 63.9635 54.845C64.1157 55.3357 64.2679 55.8433 64.4709 56.3171C64.657 56.7401 64.9277 57.1293 65.2321 57.4846C65.4689 57.7553 65.7057 58.0091 65.9763 58.2291C66.2301 58.4321 66.5007 58.6013 66.7883 58.7536C67.2111 58.9905 67.6679 59.1428 68.1753 59.0582C68.5813 58.9736 68.9534 58.8213 69.2748 58.5675C69.5285 58.3814 69.7653 58.1445 70.0021 57.9414C70.1036 57.8568 70.2051 57.7722 70.3235 57.6876C70.3235 57.6876 70.3573 57.6707 70.3742 57.6538C70.3742 57.6538 70.3912 57.6538 70.4081 57.6538C70.4927 57.6538 70.5603 57.6369 70.6449 57.62C70.6449 57.62 70.6449 57.62 70.6618 57.62C70.6618 57.62 70.6787 57.62 70.6956 57.6538C70.7126 57.7215 70.7295 57.7892 70.7464 57.8569C70.7971 58.0937 70.8309 58.3306 70.9494 58.5506C71.0847 58.8213 71.2707 59.0921 71.5414 59.2613C71.8289 59.4474 72.1165 59.5827 72.4548 59.6504C72.6409 59.6842 72.8439 59.7012 73.0299 59.7181C72.9961 59.7181 72.9623 59.7181 72.9284 59.7181C73.1145 59.7181 73.3005 59.735 73.4866 59.735C73.7911 59.735 74.0786 59.7012 74.3831 59.6166C74.6876 59.5151 75.009 59.4135 75.2965 59.2613C75.4826 59.1597 75.6518 59.0243 75.8378 58.9059C76.007 58.8382 76.1592 58.7536 76.3114 58.6352C76.5313 58.466 76.6835 58.2291 76.7681 57.9753C76.8358 57.7723 76.8527 57.5523 76.8527 57.3323C76.8527 57.1293 76.8527 56.9093 76.8527 56.7063C76.8527 55.1158 76.7512 53.5422 76.6159 51.9686C76.4806 50.3781 76.3284 48.7876 76.1761 47.1971C76.1085 46.5203 76.0408 45.8265 75.9562 45.1497C75.9224 44.8621 75.8717 44.5744 75.8547 44.2699C75.8378 44.0161 75.804 43.7622 75.6856 43.5254C75.5334 43.2546 75.2796 43.0516 74.9921 42.9839C74.7722 42.9331 74.5354 42.9162 74.3155 42.9839C74.0618 43.0347 73.808 43.0855 73.5712 43.187C73.1145 43.39 72.7424 43.6946 72.3703 44.033C72.1504 44.236 71.9643 44.456 71.7782 44.6929C71.6598 44.8451 71.5583 44.9974 71.423 45.1497C71.4061 45.1666 71.3891 45.1835 71.3722 45.2005C71.3722 45.2005 71.3553 45.2005 71.3384 45.2174C71.3384 45.2174 71.3384 45.2174 71.3046 45.2174C71.3046 45.2174 71.2877 45.2174 71.2707 45.2174C71.2538 45.2174 71.2369 45.2174 71.2031 45.2174C71.1524 45.2174 71.0847 45.2174 71.034 45.2174C70.7633 45.2005 70.4927 45.1497 70.222 45.0989C70.036 45.0482 69.8499 45.0143 69.6807 44.9467C69.2409 44.7944 68.8181 44.6082 68.4121 44.4052C68.4121 44.4052 68.3952 44.4052 68.3783 44.4052C68.3783 44.4052 68.3952 44.4052 68.4121 44.4052C68.1245 44.2529 67.837 44.1176 67.5833 43.9314C67.2112 43.6607 66.8728 43.3392 66.5176 43.0516C66.2301 42.8147 65.9256 42.6117 65.6043 42.4086C65.4858 42.324 65.3674 42.2394 65.249 42.1379C65.1137 42.0025 64.9953 41.8841 64.86 41.7488C64.5217 41.3427 64.2172 40.9365 63.9128 40.4966C63.8451 40.3782 63.7605 40.2597 63.6928 40.1413C63.6421 40.0229 63.5914 39.8875 63.5406 39.7691C63.5068 39.6337 63.456 39.4983 63.4222 39.363C63.3715 39.0584 63.3207 38.7538 63.2869 38.4493C63.2361 38.077 63.1685 37.6879 63.1516 37.3156C63.1177 36.7742 63.1008 36.2496 63.1177 35.7082C63.1177 35.5728 63.1516 35.4375 63.1685 35.2852C63.1854 35.2006 63.2192 35.116 63.253 35.0314C63.3038 34.913 63.3376 34.8114 63.3883 34.7099C63.6252 34.2869 63.8789 33.8808 64.0988 33.4409C64.3356 33.0179 64.5047 32.5441 64.657 32.0872C64.9445 31.1566 65.1137 30.1922 65.3167 29.2277C65.452 28.6017 65.6042 27.9756 65.7903 27.3496C65.9594 26.8081 66.1455 26.2667 66.2977 25.7252C66.5176 24.9131 66.6699 24.084 66.653 23.2379C66.653 22.3581 66.5007 21.4782 66.2808 20.6153C66.0948 19.9046 65.8241 19.2109 65.4858 18.551C65.2829 18.128 65.046 17.7219 64.8261 17.3158C64.6231 16.9267 64.3694 16.5713 64.1157 16.2329C63.9973 16.0806 63.8789 15.9114 63.7774 15.7592C63.7774 15.7422 63.7436 15.7084 63.7267 15.6915C63.6252 15.5392 63.5237 15.3869 63.4222 15.2346C63.3038 15.0485 63.1854 14.8793 63.1008 14.6932C63.0501 14.5747 62.9993 14.4563 62.9486 14.3379C62.9148 14.2363 62.8978 14.1518 62.864 14.0502C62.864 14.0333 62.864 13.9995 62.864 13.9825V13.9149C62.864 13.9149 62.864 13.8472 62.864 13.8133C62.864 13.7457 62.8978 13.6949 62.9147 13.6272C62.9316 13.5765 62.9655 13.5257 62.9824 13.458C63.0162 13.4073 63.0332 13.3565 63.067 13.3057C63.067 13.3057 63.067 13.3057 63.0839 13.2888C63.1008 13.2719 63.1346 13.238 63.1516 13.2211C63.2869 13.1027 63.4222 13.0012 63.5744 12.9166C63.8789 12.7135 64.2003 12.5274 64.5047 12.3075C64.843 12.0537 65.1814 11.766 65.4351 11.4106C65.8241 10.8861 66.0779 10.2939 66.2301 9.66784C66.4162 8.95719 66.4161 8.1958 66.5176 7.46823C66.5853 6.90986 66.653 6.35147 66.7545 5.81002C66.7883 5.7085 66.8052 5.60699 66.839 5.50547C66.8898 5.3701 66.9405 5.25169 66.9912 5.11633C67.0251 5.04865 67.0758 4.96404 67.1097 4.89636C67.1266 4.87944 67.1435 4.84559 67.1604 4.82866C67.2112 4.81174 67.2619 4.79483 67.3126 4.77791C67.4987 4.71022 67.6848 4.67639 67.8877 4.62563C68.3952 4.54103 68.9027 4.49024 69.4101 4.38872C69.9852 4.27028 70.5434 4.08416 71.1016 3.91495C71.6598 3.74575 72.2349 3.61039 72.7931 3.44119C73.3513 3.27199 73.8926 3.05201 74.4338 2.84897C75.0935 2.629 75.7533 2.45982 76.4299 2.29062C76.8358 2.1891 77.2418 2.10448 77.6308 2.00295C77.9691 1.90143 78.3243 1.81684 78.6795 1.74916C78.984 1.68148 79.2885 1.5969 79.6099 1.5123C80.1342 1.41078 80.6586 1.34307 81.183 1.27539C81.5382 1.24155 81.8765 1.1739 82.2148 1.08929C82.4516 1.03853 82.6884 0.970859 82.9252 0.937018C83.1789 0.886258 83.4157 0.85237 83.6695 0.835449C83.7371 0.835449 83.7879 0.835449 83.8555 0.835449C83.9063 0.90313 83.9401 0.987757 83.9739 1.07236C83.9908 1.12312 84.0247 1.19081 84.0416 1.24157C84.0924 1.42769 84.1431 1.61383 84.2276 1.78303C84.3122 1.96916 84.4137 2.15526 84.4983 2.34138C84.8535 3.15355 85.2256 3.96574 85.7669 4.67639C86.0545 5.06556 86.4266 5.40397 86.7649 5.74237C87.0863 6.04694 87.4077 6.33459 87.7798 6.58839C88.0843 6.79143 88.4226 6.92679 88.744 7.06216C89.0823 7.19752 89.4206 7.34977 89.7589 7.50205C90.131 7.68817 90.52 7.89123 90.8922 8.09427C91.2643 8.28039 91.6195 8.48346 91.9748 8.70343C92.2623 8.90647 92.5499 9.14333 92.8205 9.36329C93.3787 9.8709 93.8861 10.4462 94.3767 11.0046C94.8841 11.5629 95.4085 12.1044 95.9329 12.6628C96.3726 13.1365 96.897 13.5257 97.4721 13.8303C97.8273 14.0164 98.1995 14.2025 98.5885 14.3379C98.9437 14.4563 99.2989 14.5747 99.6711 14.6932C100.246 14.8793 100.821 15.0485 101.413 15.2177C101.836 15.3361 102.276 15.4546 102.699 15.5899C103.088 15.7084 103.46 15.8438 103.849 15.9453C104.56 16.1314 105.27 16.2837 105.98 16.4529C106.437 16.5544 106.894 16.6559 107.35 16.7236C107.604 16.7575 107.858 16.8082 108.112 16.859C108.112 16.859 108.112 16.8759 108.129 16.8928C108.213 17.1297 108.315 17.3666 108.399 17.6035C108.399 17.6373 108.416 17.6711 108.433 17.705C108.433 17.7557 108.433 17.7896 108.45 17.8404C108.467 18.3141 108.45 18.7879 108.416 19.2617C108.399 19.5493 108.348 19.82 108.298 20.1077C108.23 20.4123 108.162 20.6999 108.129 21.0045C108.095 21.309 108.078 21.6136 108.095 21.9351C108.112 22.2904 108.129 22.6457 108.196 23.001C108.264 23.3394 108.365 23.661 108.501 23.9824C108.771 24.6085 109.127 25.2176 109.532 25.776C109.685 25.996 109.854 26.2328 110.023 26.4359C110.175 26.622 110.344 26.825 110.48 27.0111C110.497 27.045 110.53 27.0789 110.547 27.1127C110.564 27.1466 110.581 27.1804 110.598 27.2311C110.598 27.265 110.598 27.2819 110.615 27.3157C110.615 27.3157 110.615 27.3157 110.615 27.3326V27.4341Z" fill="#A79D4B"/>
</svg>
